{"glyphs":{"0":{"ha":833,"x_min":0,"x_max":0,"o":"m 472 140 b 535 160 496 140 517 147 l 250 624 l 250 251 b 361 140 250 190 300 140 l 472 140 m 111 722 b 361 972 111 861 224 972 l 472 972 b 722 722 611 972 722 861 l 722 251 b 472 0 722 114 611 0 l 361 0 b 111 251 224 0 111 114 m 583 349 l 583 722 b 472 833 583 785 535 833 l 361 833 b 297 814 338 833 315 826 "},"1":{"ha":833,"x_min":0,"x_max":0,"o":"m 722 0 l 111 0 l 111 139 l 347 139 l 347 811 l 111 672 l 111 833 l 347 972 l 486 972 l 486 139 l 722 139 "},"2":{"ha":833,"x_min":0,"x_max":0,"o":"m 722 0 l 111 0 l 111 321 l 583 586 l 583 722 b 472 833 583 785 535 833 l 361 833 b 250 722 300 833 250 783 l 250 674 l 111 674 l 111 722 b 361 972 111 861 224 972 l 472 972 b 722 722 611 972 722 861 l 722 504 l 250 239 l 250 139 l 722 139 "},"3":{"ha":833,"x_min":0,"x_max":0,"o":"m 722 667 b 646 486 722 596 693 532 b 722 306 693 440 722 376 l 722 250 b 472 0 722 111 611 0 l 361 0 b 111 250 224 0 111 111 l 111 299 l 250 299 l 250 250 b 361 139 250 189 300 139 l 472 139 b 583 250 535 139 583 188 l 583 306 b 472 417 583 368 535 417 l 375 417 l 375 556 l 472 556 b 583 667 535 556 583 604 l 583 722 b 472 833 583 785 535 833 l 361 833 b 250 722 300 833 250 783 l 250 674 l 111 674 l 111 722 b 361 972 111 861 224 972 l 472 972 b 722 722 611 972 722 861 l 722 667 "},"4":{"ha":833,"x_min":0,"x_max":0,"o":"m 583 889 l 583 542 l 722 542 l 722 403 l 583 403 l 583 0 l 444 0 l 444 403 l 111 403 l 111 972 l 250 972 l 250 542 l 444 542 l 444 889 "},"5":{"ha":833,"x_min":0,"x_max":0,"o":"m 111 972 l 639 972 l 639 833 l 250 833 l 250 581 l 365 658 l 472 658 b 722 408 610 658 722 547 l 722 250 b 472 0 722 111 611 0 l 361 0 b 111 250 224 0 111 111 l 111 264 l 250 264 l 250 250 b 361 139 250 189 300 139 l 472 139 b 583 250 535 139 583 188 l 583 408 b 472 519 583 469 533 519 l 408 519 l 250 413 l 111 413 "},"6":{"ha":833,"x_min":0,"x_max":0,"o":"m 250 250 b 361 139 250 189 300 139 l 472 139 b 583 250 535 139 583 188 l 583 367 b 472 478 583 428 533 478 l 408 478 l 250 371 l 250 250 m 111 722 b 361 972 111 861 222 972 l 472 972 b 722 722 611 972 722 861 l 722 681 l 583 681 l 583 722 b 472 833 583 785 535 833 l 361 833 b 250 722 299 833 250 785 l 250 539 l 365 617 l 472 617 b 722 367 610 617 722 506 l 722 250 b 472 0 722 111 611 0 l 361 0 b 111 250 224 0 111 111 "},"7":{"ha":833,"x_min":0,"x_max":0,"o":"m 167 0 l 167 271 l 583 701 l 583 833 l 250 833 l 250 681 l 111 681 l 111 972 l 722 972 l 722 646 l 306 215 l 306 0 "},"8":{"ha":833,"x_min":0,"x_max":0,"o":"m 472 139 b 583 251 533 139 583 189 l 583 319 b 472 431 583 382 535 431 l 361 431 b 250 319 299 431 250 381 l 250 251 b 361 139 250 189 300 138 l 472 139 m 111 319 b 196 507 111 394 144 461 b 125 682 153 553 125 614 l 125 722 b 375 972 125 861 238 972 l 458 972 b 708 722 597 972 708 861 l 708 682 b 638 507 708 614 682 553 b 722 319 690 461 722 394 l 722 251 b 472 0 722 114 611 0 l 361 0 b 111 251 224 0 111 114 m 264 682 b 371 569 264 621 311 571 l 458 569 b 569 682 519 569 569 619 l 569 722 b 458 833 569 785 521 833 l 375 833 b 264 722 313 833 264 783 l 264 682 "},"9":{"ha":833,"x_min":0,"x_max":0,"o":"m 583 722 b 472 833 583 783 533 833 l 361 833 b 250 722 299 833 250 785 l 250 606 b 361 494 250 544 300 494 l 425 494 l 583 601 l 583 722 m 111 292 l 250 292 l 250 250 b 361 139 250 188 299 139 l 472 139 b 583 250 535 139 583 188 l 583 433 l 468 356 l 361 356 b 111 606 224 356 111 467 l 111 722 b 361 972 111 861 222 972 l 472 972 b 722 722 610 972 722 861 l 722 250 b 472 0 722 111 611 0 l 361 0 b 111 250 222 0 111 111 "}," ":{"ha":833,"x_min":0,"x_max":0,"o":""}," ":{"ha":833,"x_min":0,"x_max":0,"o":""},"A":{"ha":833,"x_min":0,"x_max":0,"o":"m 111 0 l 111 319 l 347 972 l 486 972 l 722 319 l 722 0 l 583 0 l 583 225 l 250 225 l 250 0 m 558 364 l 418 753 l 415 753 l 275 364 "},"Á":{"ha":833,"x_min":0,"x_max":0,"o":"m 111 0 l 111 319 l 347 972 l 486 972 l 722 319 l 722 0 l 583 0 l 583 225 l 250 225 l 250 0 m 558 364 l 418 753 l 415 753 l 275 364 m 544 1308 l 733 1308 l 511 1097 l 350 1097 "},"Ă":{"ha":833,"x_min":0,"x_max":0,"o":"m 111 0 l 111 319 l 347 972 l 486 972 l 722 319 l 722 0 l 583 0 l 583 225 l 250 225 l 250 0 m 203 1313 l 342 1313 l 342 1311 b 417 1236 342 1269 375 1236 b 490 1311 457 1236 490 1269 l 490 1313 l 629 1313 l 629 1311 b 417 1097 629 1193 533 1097 b 203 1311 299 1097 203 1193 m 558 364 l 418 753 l 415 753 l 275 364 "},"Â":{"ha":833,"x_min":0,"x_max":0,"o":"m 111 0 l 111 319 l 347 972 l 486 972 l 722 319 l 722 0 l 583 0 l 583 225 l 250 225 l 250 0 m 343 1308 l 490 1308 l 671 1097 l 510 1097 l 417 1193 l 324 1097 l 163 1097 m 558 364 l 418 753 l 415 753 l 275 364 "},"Ä":{"ha":833,"x_min":0,"x_max":0,"o":"m 111 0 l 111 319 l 347 972 l 486 972 l 722 319 l 722 0 l 583 0 l 583 225 l 250 225 l 250 0 m 215 1236 l 368 1236 l 368 1097 l 215 1097 m 558 364 l 418 753 l 415 753 l 275 364 m 465 1236 l 618 1236 l 618 1097 l 465 1097 "},"À":{"ha":833,"x_min":0,"x_max":0,"o":"m 111 0 l 111 319 l 347 972 l 486 972 l 722 319 l 722 0 l 583 0 l 583 225 l 250 225 l 250 0 m 261 1308 l 456 1097 l 294 1097 l 72 1308 m 558 364 l 418 753 l 415 753 l 275 364 "},"Ā":{"ha":833,"x_min":0,"x_max":0,"o":"m 111 0 l 111 319 l 347 972 l 486 972 l 722 319 l 722 0 l 583 0 l 583 225 l 250 225 l 250 0 m 167 1236 l 667 1236 l 667 1097 l 167 1097 m 558 364 l 418 753 l 415 753 l 275 364 "},"Ą":{"ha":833,"x_min":0,"x_max":0,"o":"m 111 0 l 111 319 l 347 972 l 486 972 l 722 319 l 722 0 b 739 -178 568 -157 676 -178 l 739 -317 l 650 -317 b 583 0 472 -317 429 -107 l 583 225 l 250 225 l 250 0 m 558 364 l 418 753 l 415 753 l 275 364 "},"Å":{"ha":833,"x_min":0,"x_max":0,"o":"m 111 0 l 111 319 l 347 972 l 486 972 l 722 319 l 722 0 l 583 0 l 583 225 l 250 225 l 250 0 m 240 1272 b 417 1447 240 1369 318 1447 b 592 1272 513 1447 592 1369 b 417 1097 592 1176 513 1097 b 240 1272 318 1097 240 1175 m 558 364 l 418 753 l 415 753 l 275 364 m 379 1272 b 417 1236 379 1253 394 1236 b 453 1272 436 1236 453 1253 b 417 1308 453 1293 436 1308 b 379 1272 394 1308 379 1293 "},"Ã":{"ha":833,"x_min":0,"x_max":0,"o":"m 111 0 l 111 319 l 347 972 l 486 972 l 722 319 l 722 0 l 583 0 l 583 225 l 250 225 l 250 0 m 169 1124 b 386 1264 204 1224 272 1268 l 538 1200 b 594 1246 572 1201 582 1213 l 725 1201 b 508 1061 690 1101 622 1057 l 357 1125 b 300 1079 322 1124 313 1113 l 169 1124 m 558 364 l 418 753 l 415 753 l 275 364 "},"Æ":{"ha":833,"x_min":0,"x_max":0,"o":"m 792 833 l 540 833 l 540 579 l 764 579 l 764 440 l 540 440 l 540 139 l 792 139 l 792 0 l 401 0 l 401 225 l 181 225 l 181 0 l 42 0 l 42 319 l 278 972 l 792 972 m 401 364 l 401 753 l 346 753 l 206 364 "},"B":{"ha":833,"x_min":0,"x_max":0,"o":"m 694 667 b 631 500 694 603 671 543 b 722 306 686 454 722 385 l 722 250 b 472 0 722 111 611 0 l 111 0 l 111 972 l 444 972 b 694 722 583 972 694 861 l 694 667 m 472 139 b 583 250 535 139 583 188 l 583 306 b 472 417 583 368 535 417 l 250 417 l 250 139 m 444 556 b 556 667 507 556 556 604 l 556 722 b 444 833 556 785 507 833 l 250 833 l 250 556 "},"C":{"ha":833,"x_min":0,"x_max":0,"o":"m 583 722 b 472 833 583 785 535 833 l 361 833 b 250 722 299 833 250 783 l 250 251 b 361 140 250 190 300 140 l 472 140 b 583 251 533 140 583 190 l 583 328 l 722 328 l 722 251 b 472 0 722 114 611 0 l 361 0 b 111 251 224 0 111 114 l 111 722 b 361 972 111 861 224 972 l 472 972 b 722 722 611 972 722 861 l 722 646 l 583 646 l 583 722 "},"Ć":{"ha":833,"x_min":0,"x_max":0,"o":"m 583 722 b 472 833 583 785 535 833 l 361 833 b 250 722 299 833 250 783 l 250 251 b 361 140 250 190 300 140 l 472 140 b 583 251 533 140 583 190 l 583 328 l 722 328 l 722 251 b 472 0 722 114 611 0 l 361 0 b 111 251 224 0 111 114 l 111 722 b 361 972 111 861 224 972 l 472 972 b 722 722 611 972 722 861 l 722 646 l 583 646 l 583 722 m 544 1308 l 733 1308 l 511 1097 l 350 1097 "},"Č":{"ha":833,"x_min":0,"x_max":0,"o":"m 583 722 b 472 833 583 785 535 833 l 361 833 b 250 722 299 833 250 783 l 250 251 b 361 140 250 190 300 140 l 472 140 b 583 251 533 140 583 190 l 583 328 l 722 328 l 722 251 b 472 0 722 114 611 0 l 361 0 b 111 251 224 0 111 114 l 111 722 b 361 972 111 861 224 972 l 472 972 b 722 722 611 972 722 861 l 722 646 l 583 646 l 583 722 m 324 1308 l 417 1213 l 510 1308 l 671 1308 l 490 1097 l 343 1097 l 163 1308 "},"Ç":{"ha":833,"x_min":0,"x_max":0,"o":"m 583 722 b 472 833 583 785 535 833 l 361 833 b 250 722 299 833 250 783 l 250 251 b 361 140 250 190 300 140 l 472 140 b 583 251 533 140 583 190 l 583 328 l 722 328 l 722 251 b 489 0 722 119 619 10 l 483 -33 l 496 -33 b 671 -212 592 -33 671 -114 b 496 -389 671 -308 592 -389 l 338 -389 l 338 -250 l 496 -250 b 532 -212 514 -250 532 -232 b 496 -172 532 -190 515 -172 l 390 -172 l 331 -60 l 350 0 b 111 251 218 6 111 118 l 111 722 b 361 972 111 861 224 972 l 472 972 b 722 722 611 972 722 861 l 722 646 l 583 646 l 583 722 "},"Ċ":{"ha":833,"x_min":0,"x_max":0,"o":"m 583 722 b 472 833 583 785 535 833 l 361 833 b 250 722 299 833 250 783 l 250 251 b 361 140 250 190 300 140 l 472 140 b 583 251 533 140 583 190 l 583 328 l 722 328 l 722 251 b 472 0 722 114 611 0 l 361 0 b 111 251 224 0 111 114 l 111 722 b 361 972 111 861 224 972 l 472 972 b 722 722 611 972 722 861 l 722 646 l 583 646 l 583 722 m 340 1236 l 493 1236 l 493 1097 l 340 1097 "},"D":{"ha":833,"x_min":0,"x_max":0,"o":"m 472 972 b 722 722 610 972 722 861 l 722 251 b 472 0 722 114 610 0 l 111 0 l 111 972 l 472 972 m 472 140 b 583 251 533 140 583 190 l 583 722 b 472 833 583 783 535 833 l 250 833 l 250 140 "},"Ð":{"ha":833,"x_min":0,"x_max":0,"o":"m 111 614 l 111 972 l 472 972 b 722 722 610 972 722 861 l 722 251 b 472 0 722 114 610 0 l 111 0 l 111 475 l 28 475 l 28 614 m 472 140 b 583 251 533 140 583 190 l 583 722 b 472 833 583 783 535 833 l 250 833 l 250 614 l 431 614 l 431 475 l 250 475 l 250 140 "},"Ď":{"ha":833,"x_min":0,"x_max":0,"o":"m 472 972 b 722 722 610 972 722 861 l 722 251 b 472 0 722 114 610 0 l 111 0 l 111 972 l 472 972 m 296 1308 l 389 1213 l 482 1308 l 643 1308 l 463 1097 l 315 1097 l 135 1308 m 472 140 b 583 251 533 140 583 190 l 583 722 b 472 833 583 783 535 833 l 250 833 l 250 140 "},"Đ":{"ha":833,"x_min":0,"x_max":0,"o":"m 111 614 l 111 972 l 472 972 b 722 722 610 972 722 861 l 722 251 b 472 0 722 114 610 0 l 111 0 l 111 475 l 28 475 l 28 614 m 472 140 b 583 251 533 140 583 190 l 583 722 b 472 833 583 783 535 833 l 250 833 l 250 614 l 431 614 l 431 475 l 250 475 l 250 140 "},"E":{"ha":833,"x_min":0,"x_max":0,"o":"m 722 833 l 250 833 l 250 579 l 667 579 l 667 440 l 250 440 l 250 139 l 722 139 l 722 0 l 111 0 l 111 972 l 722 972 "},"É":{"ha":833,"x_min":0,"x_max":0,"o":"m 722 833 l 250 833 l 250 579 l 667 579 l 667 440 l 250 440 l 250 139 l 722 139 l 722 0 l 111 0 l 111 972 l 722 972 m 544 1308 l 733 1308 l 511 1097 l 350 1097 "},"Ě":{"ha":833,"x_min":0,"x_max":0,"o":"m 722 833 l 250 833 l 250 579 l 667 579 l 667 440 l 250 440 l 250 139 l 722 139 l 722 0 l 111 0 l 111 972 l 722 972 m 324 1308 l 417 1213 l 510 1308 l 671 1308 l 490 1097 l 343 1097 l 163 1308 "},"Ê":{"ha":833,"x_min":0,"x_max":0,"o":"m 722 833 l 250 833 l 250 579 l 667 579 l 667 440 l 250 440 l 250 139 l 722 139 l 722 0 l 111 0 l 111 972 l 722 972 m 343 1308 l 490 1308 l 671 1097 l 510 1097 l 417 1193 l 324 1097 l 163 1097 "},"Ë":{"ha":833,"x_min":0,"x_max":0,"o":"m 722 833 l 250 833 l 250 579 l 667 579 l 667 440 l 250 440 l 250 139 l 722 139 l 722 0 l 111 0 l 111 972 l 722 972 m 215 1236 l 368 1236 l 368 1097 l 215 1097 m 465 1236 l 618 1236 l 618 1097 l 465 1097 "},"Ė":{"ha":833,"x_min":0,"x_max":0,"o":"m 722 833 l 250 833 l 250 579 l 667 579 l 667 440 l 250 440 l 250 139 l 722 139 l 722 0 l 111 0 l 111 972 l 722 972 m 340 1236 l 493 1236 l 493 1097 l 340 1097 "},"È":{"ha":833,"x_min":0,"x_max":0,"o":"m 722 833 l 250 833 l 250 579 l 667 579 l 667 440 l 250 440 l 250 139 l 722 139 l 722 0 l 111 0 l 111 972 l 722 972 m 261 1308 l 456 1097 l 294 1097 l 72 1308 "},"Ē":{"ha":833,"x_min":0,"x_max":0,"o":"m 722 833 l 250 833 l 250 579 l 667 579 l 667 440 l 250 440 l 250 139 l 722 139 l 722 0 l 111 0 l 111 972 l 722 972 m 167 1224 l 667 1224 l 667 1085 l 167 1085 "},"Ę":{"ha":833,"x_min":0,"x_max":0,"o":"m 722 833 l 250 833 l 250 579 l 667 579 l 667 440 l 250 440 l 250 139 l 722 139 l 722 0 l 524 0 b 564 -153 406 -135 506 -153 l 564 -292 l 475 -292 b 378 0 310 -292 261 -111 l 111 0 l 111 972 l 722 972 "},"F":{"ha":833,"x_min":0,"x_max":0,"o":"m 722 833 l 250 833 l 250 538 l 667 538 l 667 399 l 250 399 l 250 0 l 111 0 l 111 972 l 722 972 "},"G":{"ha":833,"x_min":0,"x_max":0,"o":"m 722 524 l 722 251 b 472 0 722 114 611 0 l 361 0 b 111 251 224 0 111 114 l 111 722 b 361 972 111 861 224 972 l 472 972 b 722 722 611 972 722 861 l 722 646 l 583 646 l 583 722 b 472 833 583 785 535 833 l 361 833 b 250 722 299 833 250 783 l 250 251 b 361 140 250 190 300 140 l 472 140 b 583 251 533 140 583 190 l 583 385 l 375 385 l 375 524 "},"Ğ":{"ha":833,"x_min":0,"x_max":0,"o":"m 722 524 l 722 251 b 472 0 722 114 611 0 l 361 0 b 111 251 224 0 111 114 l 111 722 b 361 972 111 861 224 972 l 472 972 b 722 722 611 972 722 861 l 722 646 l 583 646 l 583 722 b 472 833 583 785 535 833 l 361 833 b 250 722 299 833 250 783 l 250 251 b 361 140 250 190 300 140 l 472 140 b 583 251 533 140 583 190 l 583 385 l 375 385 l 375 524 m 203 1313 l 342 1313 l 342 1311 b 417 1236 342 1269 375 1236 b 490 1311 457 1236 490 1269 l 490 1313 l 629 1313 l 629 1311 b 417 1097 629 1193 533 1097 b 203 1311 299 1097 203 1193 "},"Ģ":{"ha":833,"x_min":0,"x_max":0,"o":"m 722 524 l 722 251 b 472 0 722 114 611 0 l 361 0 b 111 251 224 0 111 114 l 111 722 b 361 972 111 861 224 972 l 472 972 b 722 722 611 972 722 861 l 722 646 l 583 646 l 583 722 b 472 833 583 785 535 833 l 361 833 b 250 722 299 833 250 783 l 250 251 b 361 140 250 190 300 140 l 472 140 b 583 251 533 140 583 190 l 583 385 l 375 385 l 375 524 m 360 -139 l 499 -139 l 465 -240 l 321 -431 l 260 -431 "},"Ġ":{"ha":833,"x_min":0,"x_max":0,"o":"m 722 524 l 722 251 b 472 0 722 114 611 0 l 361 0 b 111 251 224 0 111 114 l 111 722 b 361 972 111 861 224 972 l 472 972 b 722 722 611 972 722 861 l 722 646 l 583 646 l 583 722 b 472 833 583 785 535 833 l 361 833 b 250 722 299 833 250 783 l 250 251 b 361 140 250 190 300 140 l 472 140 b 583 251 533 140 583 190 l 583 385 l 375 385 l 375 524 m 340 1236 l 493 1236 l 493 1097 l 340 1097 "},"H":{"ha":833,"x_min":0,"x_max":0,"o":"m 250 583 l 583 583 l 583 972 l 722 972 l 722 0 l 583 0 l 583 444 l 250 444 l 250 0 l 111 0 l 111 972 l 250 972 "},"Ħ":{"ha":833,"x_min":0,"x_max":0,"o":"m 111 847 l 111 972 l 250 972 l 250 847 l 583 847 l 583 972 l 722 972 l 722 847 l 792 847 l 792 708 l 722 708 l 722 0 l 583 0 l 583 444 l 250 444 l 250 0 l 111 0 l 111 708 l 42 708 l 42 847 m 583 583 l 583 708 l 250 708 l 250 583 "},"I":{"ha":833,"x_min":0,"x_max":0,"o":"m 722 972 l 722 833 l 486 833 l 486 139 l 722 139 l 722 0 l 111 0 l 111 139 l 347 139 l 347 833 l 111 833 l 111 972 "},"Í":{"ha":833,"x_min":0,"x_max":0,"o":"m 722 972 l 722 833 l 486 833 l 486 139 l 722 139 l 722 0 l 111 0 l 111 139 l 347 139 l 347 833 l 111 833 l 111 972 m 544 1308 l 733 1308 l 511 1097 l 350 1097 "},"Î":{"ha":833,"x_min":0,"x_max":0,"o":"m 722 972 l 722 833 l 486 833 l 486 139 l 722 139 l 722 0 l 111 0 l 111 139 l 347 139 l 347 833 l 111 833 l 111 972 m 343 1308 l 490 1308 l 671 1097 l 510 1097 l 417 1193 l 324 1097 l 163 1097 "},"Ï":{"ha":833,"x_min":0,"x_max":0,"o":"m 722 972 l 722 833 l 486 833 l 486 139 l 722 139 l 722 0 l 111 0 l 111 139 l 347 139 l 347 833 l 111 833 l 111 972 m 215 1236 l 368 1236 l 368 1097 l 215 1097 m 465 1236 l 618 1236 l 618 1097 l 465 1097 "},"İ":{"ha":833,"x_min":0,"x_max":0,"o":"m 722 972 l 722 833 l 486 833 l 486 139 l 722 139 l 722 0 l 111 0 l 111 139 l 347 139 l 347 833 l 111 833 l 111 972 m 340 1236 l 493 1236 l 493 1097 l 340 1097 "},"Ì":{"ha":833,"x_min":0,"x_max":0,"o":"m 722 972 l 722 833 l 486 833 l 486 139 l 722 139 l 722 0 l 111 0 l 111 139 l 347 139 l 347 833 l 111 833 l 111 972 m 261 1308 l 456 1097 l 294 1097 l 72 1308 "},"Ī":{"ha":833,"x_min":0,"x_max":0,"o":"m 722 972 l 722 833 l 486 833 l 486 139 l 722 139 l 722 0 l 111 0 l 111 139 l 347 139 l 347 833 l 111 833 l 111 972 m 167 1225 l 667 1225 l 667 1086 l 167 1086 "},"Į":{"ha":833,"x_min":0,"x_max":0,"o":"m 722 972 l 722 833 l 486 833 l 486 139 l 722 139 l 722 0 l 706 0 b 722 -178 551 -157 660 -178 l 722 -317 l 633 -317 b 567 0 456 -317 413 -107 l 111 0 l 111 139 l 347 139 l 347 833 l 111 833 l 111 972 "},"J":{"ha":833,"x_min":0,"x_max":0,"o":"m 722 972 l 722 251 b 472 0 722 114 610 0 l 361 0 b 111 251 222 0 111 114 l 111 369 l 250 369 l 250 251 b 361 140 250 190 300 140 l 472 140 b 583 251 533 140 583 190 l 583 833 l 236 833 l 236 972 "},"K":{"ha":833,"x_min":0,"x_max":0,"o":"m 111 0 l 111 972 l 250 972 l 250 556 l 303 556 l 558 972 l 722 972 l 424 486 l 722 0 l 558 0 l 303 417 l 250 417 l 250 0 "},"Ķ":{"ha":833,"x_min":0,"x_max":0,"o":"m 111 0 l 111 972 l 250 972 l 250 556 l 303 556 l 558 972 l 722 972 l 424 486 l 722 0 l 558 0 l 303 417 l 250 417 l 250 0 m 360 -139 l 499 -139 l 465 -240 l 321 -431 l 260 -431 "},"L":{"ha":833,"x_min":0,"x_max":0,"o":"m 250 139 l 722 139 l 722 0 l 111 0 l 111 972 l 250 972 "},"Ĺ":{"ha":833,"x_min":0,"x_max":0,"o":"m 250 139 l 722 139 l 722 0 l 111 0 l 111 972 l 250 972 m 308 1308 l 497 1308 l 275 1097 l 114 1097 "},"Ľ":{"ha":833,"x_min":0,"x_max":0,"o":"m 250 139 l 722 139 l 722 0 l 111 0 l 111 972 l 250 972 m 518 986 l 657 986 l 624 885 l 479 694 l 418 694 "},"Ļ":{"ha":833,"x_min":0,"x_max":0,"o":"m 250 139 l 722 139 l 722 0 l 111 0 l 111 972 l 250 972 m 360 -139 l 499 -139 l 465 -240 l 321 -431 l 260 -431 "},"Ł":{"ha":833,"x_min":0,"x_max":0,"o":"m 250 443 l 250 139 l 722 139 l 722 0 l 111 0 l 111 390 l 28 360 l 29 508 l 111 539 l 111 972 l 250 972 l 250 590 l 513 689 l 513 540 "},"M":{"ha":833,"x_min":0,"x_max":0,"o":"m 250 667 l 250 0 l 111 0 l 111 972 l 250 972 l 417 610 l 583 972 l 722 972 l 722 0 l 583 0 l 583 667 l 454 392 l 379 392 "},"N":{"ha":833,"x_min":0,"x_max":0,"o":"m 722 972 l 722 0 l 521 0 l 250 739 l 250 0 l 111 0 l 111 972 l 313 972 l 583 233 l 583 972 "},"Ń":{"ha":833,"x_min":0,"x_max":0,"o":"m 722 972 l 722 0 l 521 0 l 250 739 l 250 0 l 111 0 l 111 972 l 313 972 l 583 233 l 583 972 m 544 1308 l 733 1308 l 511 1097 l 350 1097 "},"Ň":{"ha":833,"x_min":0,"x_max":0,"o":"m 722 972 l 722 0 l 521 0 l 250 739 l 250 0 l 111 0 l 111 972 l 313 972 l 583 233 l 583 972 m 324 1308 l 417 1213 l 510 1308 l 671 1308 l 490 1097 l 343 1097 l 163 1308 "},"Ņ":{"ha":833,"x_min":0,"x_max":0,"o":"m 722 972 l 722 0 l 521 0 l 250 739 l 250 0 l 111 0 l 111 972 l 313 972 l 583 233 l 583 972 m 360 -139 l 499 -139 l 465 -240 l 321 -431 l 260 -431 "},"Ŋ":{"ha":833,"x_min":0,"x_max":0,"o":"m 361 -292 l 361 -153 l 472 -153 b 583 -42 535 -153 583 -104 l 583 0 l 521 0 l 250 739 l 250 0 l 111 0 l 111 972 l 313 972 l 583 233 l 583 972 l 722 972 l 722 -42 b 472 -292 722 -181 611 -292 "},"Ñ":{"ha":833,"x_min":0,"x_max":0,"o":"m 722 972 l 722 0 l 521 0 l 250 739 l 250 0 l 111 0 l 111 972 l 313 972 l 583 233 l 583 972 m 169 1124 b 386 1264 204 1224 272 1268 l 538 1200 b 594 1246 572 1201 582 1213 l 725 1201 b 508 1061 690 1101 622 1057 l 357 1125 b 300 1079 322 1124 313 1113 l 169 1124 "},"O":{"ha":833,"x_min":0,"x_max":0,"o":"m 472 140 b 583 251 533 140 583 190 l 583 722 b 472 833 583 785 535 833 l 361 833 b 250 722 299 833 250 783 l 250 251 b 361 140 250 190 300 140 l 472 140 m 111 722 b 361 972 111 861 224 972 l 472 972 b 722 722 611 972 722 861 l 722 251 b 472 0 722 114 611 0 l 361 0 b 111 251 224 0 111 114 "},"Ó":{"ha":833,"x_min":0,"x_max":0,"o":"m 472 140 b 583 251 533 140 583 190 l 583 722 b 472 833 583 785 535 833 l 361 833 b 250 722 299 833 250 783 l 250 251 b 361 140 250 190 300 140 l 472 140 m 111 722 b 361 972 111 861 224 972 l 472 972 b 722 722 611 972 722 861 l 722 251 b 472 0 722 114 611 0 l 361 0 b 111 251 224 0 111 114 m 544 1308 l 733 1308 l 511 1097 l 350 1097 "},"Ô":{"ha":833,"x_min":0,"x_max":0,"o":"m 472 140 b 583 251 533 140 583 190 l 583 722 b 472 833 583 785 535 833 l 361 833 b 250 722 299 833 250 783 l 250 251 b 361 140 250 190 300 140 l 472 140 m 111 722 b 361 972 111 861 224 972 l 472 972 b 722 722 611 972 722 861 l 722 251 b 472 0 722 114 611 0 l 361 0 b 111 251 224 0 111 114 m 343 1308 l 490 1308 l 671 1097 l 510 1097 l 417 1193 l 324 1097 l 163 1097 "},"Ö":{"ha":833,"x_min":0,"x_max":0,"o":"m 472 140 b 583 251 533 140 583 190 l 583 722 b 472 833 583 785 535 833 l 361 833 b 250 722 299 833 250 783 l 250 251 b 361 140 250 190 300 140 l 472 140 m 111 722 b 361 972 111 861 224 972 l 472 972 b 722 722 611 972 722 861 l 722 251 b 472 0 722 114 611 0 l 361 0 b 111 251 224 0 111 114 m 215 1236 l 368 1236 l 368 1097 l 215 1097 m 465 1236 l 618 1236 l 618 1097 l 465 1097 "},"Ò":{"ha":833,"x_min":0,"x_max":0,"o":"m 472 140 b 583 251 533 140 583 190 l 583 722 b 472 833 583 785 535 833 l 361 833 b 250 722 299 833 250 783 l 250 251 b 361 140 250 190 300 140 l 472 140 m 261 1308 l 456 1097 l 294 1097 l 72 1308 m 111 722 b 361 972 111 861 224 972 l 472 972 b 722 722 611 972 722 861 l 722 251 b 472 0 722 114 611 0 l 361 0 b 111 251 224 0 111 114 "},"Ő":{"ha":833,"x_min":0,"x_max":0,"o":"m 472 140 b 583 251 533 140 583 190 l 583 722 b 472 833 583 785 535 833 l 361 833 b 250 722 299 833 250 783 l 250 251 b 361 140 250 190 300 140 l 472 140 m 111 722 b 361 972 111 861 224 972 l 472 972 b 722 722 611 972 722 861 l 722 251 b 472 0 722 114 611 0 l 361 0 b 111 251 224 0 111 114 m 378 1308 l 567 1308 l 344 1097 l 183 1097 m 656 1308 l 844 1308 l 622 1097 l 461 1097 "},"Ō":{"ha":833,"x_min":0,"x_max":0,"o":"m 472 140 b 583 251 533 140 583 190 l 583 722 b 472 833 583 785 535 833 l 361 833 b 250 722 299 833 250 783 l 250 251 b 361 140 250 190 300 140 l 472 140 m 111 722 b 361 972 111 861 224 972 l 472 972 b 722 722 611 972 722 861 l 722 251 b 472 0 722 114 611 0 l 361 0 b 111 251 224 0 111 114 m 167 1236 l 667 1236 l 667 1097 l 167 1097 "},"Ø":{"ha":833,"x_min":0,"x_max":0,"o":"m 472 140 b 583 251 533 140 583 190 l 583 722 l 583 732 l 361 140 l 472 140 m 188 72 b 111 251 140 118 111 182 l 111 722 b 361 972 111 861 224 972 l 472 972 b 522 967 489 972 507 971 l 579 1118 l 728 1118 l 647 901 b 722 722 693 857 722 793 l 722 251 b 472 0 722 114 611 0 l 361 0 b 311 6 344 0 326 1 l 254 -146 l 106 -146 m 250 240 l 472 833 l 361 833 b 250 722 299 833 250 783 l 250 251 "},"Õ":{"ha":833,"x_min":0,"x_max":0,"o":"m 472 140 b 583 251 533 140 583 190 l 583 722 b 472 833 583 785 535 833 l 361 833 b 250 722 299 833 250 783 l 250 251 b 361 140 250 190 300 140 l 472 140 m 111 722 b 361 972 111 861 224 972 l 472 972 b 722 722 611 972 722 861 l 722 251 b 472 0 722 114 611 0 l 361 0 b 111 251 224 0 111 114 m 169 1124 b 386 1264 204 1224 272 1268 l 538 1200 b 594 1246 572 1201 582 1213 l 725 1201 b 508 1061 690 1101 622 1057 l 357 1125 b 300 1079 322 1124 313 1113 l 169 1124 "},"Œ":{"ha":833,"x_min":0,"x_max":0,"o":"m 292 140 b 403 251 353 140 403 190 l 403 722 b 292 833 403 785 354 833 b 181 722 229 833 181 783 l 181 251 b 292 140 181 190 231 140 m 42 722 b 292 972 42 861 154 972 b 403 947 332 972 369 963 l 403 972 l 792 972 l 792 833 l 542 833 l 542 579 l 764 579 l 764 440 l 542 440 l 542 139 l 792 139 l 792 0 l 403 0 l 403 26 b 292 0 369 10 332 0 b 42 251 150 0 42 118 "},"P":{"ha":833,"x_min":0,"x_max":0,"o":"m 722 639 b 472 389 722 500 611 389 l 250 389 l 250 0 l 111 0 l 111 972 l 472 972 b 722 722 611 972 722 861 l 722 639 m 472 528 b 583 639 535 528 583 576 l 583 722 b 472 833 583 785 535 833 l 250 833 l 250 528 "},"Þ":{"ha":833,"x_min":0,"x_max":0,"o":"m 722 458 b 472 208 722 319 611 208 l 250 208 l 250 0 l 111 0 l 111 972 l 250 972 l 250 792 l 472 792 b 722 542 611 792 722 681 l 722 458 m 472 347 b 583 458 535 347 583 396 l 583 542 b 472 653 583 604 535 653 l 250 653 l 250 347 "},"Q":{"ha":833,"x_min":0,"x_max":0,"o":"m 600 -182 l 488 0 l 472 0 l 361 0 b 111 251 224 0 111 114 l 111 722 b 361 972 111 861 224 972 l 472 972 b 722 722 611 972 722 861 l 722 251 b 622 50 722 169 683 96 l 722 -114 m 250 251 b 361 140 250 190 300 140 l 472 140 b 583 251 533 140 583 190 l 583 722 b 472 833 583 785 535 833 l 361 833 b 250 722 299 833 250 783 l 250 251 "},"R":{"ha":833,"x_min":0,"x_max":0,"o":"m 569 0 l 393 389 l 250 389 l 250 0 l 111 0 l 111 972 l 472 972 b 722 722 611 972 722 861 l 722 639 b 540 399 722 524 646 428 l 722 0 m 472 528 b 583 639 535 528 583 576 l 583 722 b 472 833 583 785 535 833 l 250 833 l 250 528 "},"Ŕ":{"ha":833,"x_min":0,"x_max":0,"o":"m 569 0 l 393 389 l 250 389 l 250 0 l 111 0 l 111 972 l 472 972 b 722 722 611 972 722 861 l 722 639 b 540 399 722 524 646 428 l 722 0 m 472 528 b 583 639 535 528 583 576 l 583 722 b 472 833 583 785 535 833 l 250 833 l 250 528 m 544 1308 l 733 1308 l 511 1097 l 350 1097 "},"Ř":{"ha":833,"x_min":0,"x_max":0,"o":"m 569 0 l 393 389 l 250 389 l 250 0 l 111 0 l 111 972 l 472 972 b 722 722 611 972 722 861 l 722 639 b 540 399 722 524 646 428 l 722 0 m 324 1308 l 417 1213 l 510 1308 l 671 1308 l 490 1097 l 343 1097 l 163 1308 m 472 528 b 583 639 535 528 583 576 l 583 722 b 472 833 583 785 535 833 l 250 833 l 250 528 "},"Ŗ":{"ha":833,"x_min":0,"x_max":0,"o":"m 569 0 l 393 389 l 250 389 l 250 0 l 111 0 l 111 972 l 472 972 b 722 722 611 972 722 861 l 722 639 b 540 399 722 524 646 428 l 722 0 m 472 528 b 583 639 535 528 583 576 l 583 722 b 472 833 583 785 535 833 l 250 833 l 250 528 m 360 -139 l 499 -139 l 465 -240 l 321 -431 l 260 -431 "},"S":{"ha":833,"x_min":0,"x_max":0,"o":"m 250 314 l 250 258 b 369 139 250 193 304 139 l 463 139 b 583 244 533 139 583 183 b 125 742 583 436 125 478 b 383 972 125 878 232 972 l 449 972 b 708 714 592 972 708 857 l 708 672 l 569 672 l 569 714 b 449 833 569 781 515 833 l 383 833 b 264 742 308 833 264 799 b 722 244 264 594 722 538 b 463 0 722 106 610 0 l 369 0 b 111 258 226 0 111 115 l 111 314 "},"Ś":{"ha":833,"x_min":0,"x_max":0,"o":"m 250 314 l 250 258 b 369 139 250 193 304 139 l 463 139 b 583 244 533 139 583 183 b 125 742 583 436 125 478 b 383 972 125 878 232 972 l 449 972 b 708 714 592 972 708 857 l 708 672 l 569 672 l 569 714 b 449 833 569 781 515 833 l 383 833 b 264 742 308 833 264 799 b 722 244 264 594 722 538 b 463 0 722 106 610 0 l 369 0 b 111 258 226 0 111 115 l 111 314 m 544 1308 l 733 1308 l 511 1097 l 350 1097 "},"Š":{"ha":833,"x_min":0,"x_max":0,"o":"m 250 314 l 250 258 b 369 139 250 193 304 139 l 463 139 b 583 244 533 139 583 183 b 125 742 583 436 125 478 b 383 972 125 878 232 972 l 449 972 b 708 714 592 972 708 857 l 708 672 l 569 672 l 569 714 b 449 833 569 781 515 833 l 383 833 b 264 742 308 833 264 799 b 722 244 264 594 722 538 b 463 0 722 106 610 0 l 369 0 b 111 258 226 0 111 115 l 111 314 m 324 1308 l 417 1213 l 510 1308 l 671 1308 l 490 1097 l 343 1097 l 163 1308 "},"Ş":{"ha":833,"x_min":0,"x_max":0,"o":"m 250 314 l 250 258 b 369 139 250 193 304 139 l 463 139 b 583 244 533 139 583 183 b 125 742 583 436 125 478 b 383 972 125 878 232 972 l 449 972 b 708 714 592 972 708 857 l 708 672 l 569 672 l 569 714 b 449 833 569 781 515 833 l 383 833 b 264 742 308 833 264 799 b 722 244 264 594 722 538 b 488 1 722 114 622 13 l 488 0 l 482 -33 l 494 -33 b 669 -212 590 -33 669 -114 b 494 -389 669 -308 590 -389 l 336 -389 l 336 -250 l 494 -250 b 531 -212 513 -250 531 -232 b 494 -172 531 -190 514 -172 l 389 -172 l 329 -60 l 349 1 b 111 258 215 11 111 122 l 111 314 "},"Ș":{"ha":833,"x_min":0,"x_max":0,"o":"m 250 314 l 250 258 b 369 139 250 193 304 139 l 463 139 b 583 244 533 139 583 183 b 125 742 583 436 125 478 b 383 972 125 878 232 972 l 449 972 b 708 714 592 972 708 857 l 708 672 l 569 672 l 569 714 b 449 833 569 781 515 833 l 383 833 b 264 742 308 833 264 799 b 722 244 264 594 722 538 b 463 0 722 106 610 0 l 369 0 b 111 258 226 0 111 115 l 111 314 m 360 -139 l 499 -139 l 465 -240 l 321 -431 l 260 -431 "},"T":{"ha":833,"x_min":0,"x_max":0,"o":"m 722 972 l 722 833 l 486 833 l 486 0 l 347 0 l 347 833 l 111 833 l 111 972 "},"Ŧ":{"ha":833,"x_min":0,"x_max":0,"o":"m 722 972 l 722 833 l 486 833 l 486 440 l 667 440 l 667 301 l 486 301 l 486 0 l 347 0 l 347 301 l 167 301 l 167 440 l 347 440 l 347 833 l 111 833 l 111 972 "},"Ť":{"ha":833,"x_min":0,"x_max":0,"o":"m 722 972 l 722 833 l 486 833 l 486 0 l 347 0 l 347 833 l 111 833 l 111 972 m 324 1308 l 417 1213 l 510 1308 l 671 1308 l 490 1097 l 343 1097 l 163 1308 "},"Ţ":{"ha":833,"x_min":0,"x_max":0,"o":"m 722 972 l 722 833 l 486 833 l 486 46 l 488 46 l 488 0 l 482 -33 l 494 -33 b 669 -212 590 -33 669 -114 b 494 -389 669 -308 590 -389 l 336 -389 l 336 -250 l 494 -250 b 531 -212 513 -250 531 -232 b 494 -172 531 -190 514 -172 l 389 -172 l 329 -60 l 349 0 l 347 0 l 347 833 l 111 833 l 111 972 "},"Ț":{"ha":833,"x_min":0,"x_max":0,"o":"m 722 972 l 722 833 l 486 833 l 486 0 l 347 0 l 347 833 l 111 833 l 111 972 m 360 -139 l 499 -139 l 465 -240 l 321 -431 l 260 -431 "},"U":{"ha":833,"x_min":0,"x_max":0,"o":"m 722 251 b 472 0 722 114 610 0 l 361 0 b 111 251 222 0 111 114 l 111 972 l 250 972 l 250 251 b 361 140 250 190 300 140 l 472 140 b 583 251 533 140 583 190 l 583 972 l 722 972 l 722 251 "},"Ú":{"ha":833,"x_min":0,"x_max":0,"o":"m 722 251 b 472 0 722 114 610 0 l 361 0 b 111 251 222 0 111 114 l 111 972 l 250 972 l 250 251 b 361 140 250 190 300 140 l 472 140 b 583 251 533 140 583 190 l 583 972 l 722 972 l 722 251 m 544 1308 l 733 1308 l 511 1097 l 350 1097 "},"Û":{"ha":833,"x_min":0,"x_max":0,"o":"m 722 251 b 472 0 722 114 610 0 l 361 0 b 111 251 222 0 111 114 l 111 972 l 250 972 l 250 251 b 361 140 250 190 300 140 l 472 140 b 583 251 533 140 583 190 l 583 972 l 722 972 l 722 251 m 343 1308 l 490 1308 l 671 1097 l 510 1097 l 417 1193 l 324 1097 l 163 1097 "},"Ü":{"ha":833,"x_min":0,"x_max":0,"o":"m 722 251 b 472 0 722 114 610 0 l 361 0 b 111 251 222 0 111 114 l 111 972 l 250 972 l 250 251 b 361 140 250 190 300 140 l 472 140 b 583 251 533 140 583 190 l 583 972 l 722 972 l 722 251 m 215 1236 l 368 1236 l 368 1097 l 215 1097 m 465 1236 l 618 1236 l 618 1097 l 465 1097 "},"Ù":{"ha":833,"x_min":0,"x_max":0,"o":"m 722 251 b 472 0 722 114 610 0 l 361 0 b 111 251 222 0 111 114 l 111 972 l 250 972 l 250 251 b 361 140 250 190 300 140 l 472 140 b 583 251 533 140 583 190 l 583 972 l 722 972 l 722 251 m 261 1308 l 456 1097 l 294 1097 l 72 1308 "},"Ű":{"ha":833,"x_min":0,"x_max":0,"o":"m 722 251 b 472 0 722 114 610 0 l 361 0 b 111 251 222 0 111 114 l 111 972 l 250 972 l 250 251 b 361 140 250 190 300 140 l 472 140 b 583 251 533 140 583 190 l 583 972 l 722 972 l 722 251 m 378 1308 l 567 1308 l 344 1097 l 183 1097 m 656 1308 l 844 1308 l 622 1097 l 461 1097 "},"Ū":{"ha":833,"x_min":0,"x_max":0,"o":"m 722 251 b 472 0 722 114 610 0 l 361 0 b 111 251 222 0 111 114 l 111 972 l 250 972 l 250 251 b 361 140 250 190 300 140 l 472 140 b 583 251 533 140 583 190 l 583 972 l 722 972 l 722 251 m 167 1236 l 667 1236 l 667 1097 l 167 1097 "},"Ų":{"ha":833,"x_min":0,"x_max":0,"o":"m 722 251 b 531 7 722 133 640 33 b 564 -153 401 -133 504 -153 l 564 -292 l 475 -292 b 378 0 310 -292 261 -111 l 361 0 b 111 251 222 0 111 114 l 111 972 l 250 972 l 250 251 b 361 140 250 190 300 140 l 472 140 b 583 251 533 140 583 190 l 583 972 l 722 972 l 722 251 "},"Ů":{"ha":833,"x_min":0,"x_max":0,"o":"m 722 251 b 472 0 722 114 610 0 l 361 0 b 111 251 222 0 111 114 l 111 972 l 250 972 l 250 251 b 361 140 250 190 300 140 l 472 140 b 583 251 533 140 583 190 l 583 972 l 722 972 l 722 251 m 240 1272 b 417 1447 240 1369 318 1447 b 592 1272 513 1447 592 1369 b 417 1097 592 1176 513 1097 b 240 1272 318 1097 240 1175 m 379 1272 b 417 1236 379 1253 394 1236 b 453 1272 436 1236 453 1253 b 417 1308 453 1293 436 1308 b 379 1272 394 1308 379 1293 "},"V":{"ha":833,"x_min":0,"x_max":0,"o":"m 722 972 l 722 653 l 486 0 l 347 0 l 111 653 l 111 972 l 250 972 l 250 678 l 415 219 l 418 219 l 583 678 l 583 972 "},"W":{"ha":833,"x_min":0,"x_max":0,"o":"m 550 285 l 583 694 l 583 972 l 722 972 l 722 653 l 639 0 l 528 0 l 417 415 l 306 0 l 194 0 l 111 653 l 111 972 l 250 972 l 250 694 l 283 285 l 360 722 l 474 722 "},"Ẃ":{"ha":833,"x_min":0,"x_max":0,"o":"m 550 285 l 583 694 l 583 972 l 722 972 l 722 653 l 639 0 l 528 0 l 417 415 l 306 0 l 194 0 l 111 653 l 111 972 l 250 972 l 250 694 l 283 285 l 360 722 l 474 722 m 544 1308 l 733 1308 l 511 1097 l 350 1097 "},"Ŵ":{"ha":833,"x_min":0,"x_max":0,"o":"m 550 285 l 583 694 l 583 972 l 722 972 l 722 653 l 639 0 l 528 0 l 417 415 l 306 0 l 194 0 l 111 653 l 111 972 l 250 972 l 250 694 l 283 285 l 360 722 l 474 722 m 343 1308 l 490 1308 l 671 1097 l 510 1097 l 417 1193 l 324 1097 l 163 1097 "},"Ẅ":{"ha":833,"x_min":0,"x_max":0,"o":"m 550 285 l 583 694 l 583 972 l 722 972 l 722 653 l 639 0 l 528 0 l 417 415 l 306 0 l 194 0 l 111 653 l 111 972 l 250 972 l 250 694 l 283 285 l 360 722 l 474 722 m 215 1236 l 368 1236 l 368 1097 l 215 1097 m 465 1236 l 618 1236 l 618 1097 l 465 1097 "},"Ẁ":{"ha":833,"x_min":0,"x_max":0,"o":"m 550 285 l 583 694 l 583 972 l 722 972 l 722 653 l 639 0 l 528 0 l 417 415 l 306 0 l 194 0 l 111 653 l 111 972 l 250 972 l 250 694 l 283 285 l 360 722 l 474 722 m 261 1308 l 456 1097 l 294 1097 l 72 1308 "},"X":{"ha":833,"x_min":0,"x_max":0,"o":"m 340 486 l 111 972 l 264 972 l 417 649 l 569 972 l 722 972 l 493 486 l 722 0 l 569 0 l 417 324 l 264 0 l 111 0 "},"Y":{"ha":833,"x_min":0,"x_max":0,"o":"m 347 346 l 111 639 l 111 972 l 250 972 l 250 689 l 414 485 l 417 485 l 583 703 l 583 972 l 722 972 l 722 656 l 486 346 l 486 0 l 347 0 "},"Ý":{"ha":833,"x_min":0,"x_max":0,"o":"m 347 346 l 111 639 l 111 972 l 250 972 l 250 689 l 414 485 l 417 485 l 583 703 l 583 972 l 722 972 l 722 656 l 486 346 l 486 0 l 347 0 m 544 1308 l 733 1308 l 511 1097 l 350 1097 "},"Ŷ":{"ha":833,"x_min":0,"x_max":0,"o":"m 347 346 l 111 639 l 111 972 l 250 972 l 250 689 l 414 485 l 417 485 l 583 703 l 583 972 l 722 972 l 722 656 l 486 346 l 486 0 l 347 0 m 343 1308 l 490 1308 l 671 1097 l 510 1097 l 417 1193 l 324 1097 l 163 1097 "},"Ÿ":{"ha":833,"x_min":0,"x_max":0,"o":"m 347 346 l 111 639 l 111 972 l 250 972 l 250 689 l 414 485 l 417 485 l 583 703 l 583 972 l 722 972 l 722 656 l 486 346 l 486 0 l 347 0 m 215 1236 l 368 1236 l 368 1097 l 215 1097 m 465 1236 l 618 1236 l 618 1097 l 465 1097 "},"Ỳ":{"ha":833,"x_min":0,"x_max":0,"o":"m 347 346 l 111 639 l 111 972 l 250 972 l 250 689 l 414 485 l 417 485 l 583 703 l 583 972 l 722 972 l 722 656 l 486 346 l 486 0 l 347 0 m 261 1308 l 456 1097 l 294 1097 l 72 1308 "},"Z":{"ha":833,"x_min":0,"x_max":0,"o":"m 722 972 l 722 833 l 276 139 l 722 139 l 722 0 l 111 0 l 111 139 l 558 833 l 111 833 l 111 972 "},"Ź":{"ha":833,"x_min":0,"x_max":0,"o":"m 722 972 l 722 833 l 276 139 l 722 139 l 722 0 l 111 0 l 111 139 l 558 833 l 111 833 l 111 972 m 544 1308 l 733 1308 l 511 1097 l 350 1097 "},"Ž":{"ha":833,"x_min":0,"x_max":0,"o":"m 722 972 l 722 833 l 276 139 l 722 139 l 722 0 l 111 0 l 111 139 l 558 833 l 111 833 l 111 972 m 324 1308 l 417 1213 l 510 1308 l 671 1308 l 490 1097 l 343 1097 l 163 1308 "},"Ż":{"ha":833,"x_min":0,"x_max":0,"o":"m 722 972 l 722 833 l 276 139 l 722 139 l 722 0 l 111 0 l 111 139 l 558 833 l 111 833 l 111 972 m 340 1236 l 493 1236 l 493 1097 l 340 1097 "},"a":{"ha":833,"x_min":0,"x_max":0,"o":"m 722 0 l 583 0 l 583 78 l 468 0 l 361 0 b 111 250 224 0 111 113 l 111 458 b 361 708 111 597 224 708 l 468 708 l 583 631 l 583 708 l 722 708 m 250 250 b 361 139 250 189 300 139 l 425 139 l 583 246 l 583 463 l 425 569 l 361 569 b 250 458 300 569 250 519 l 250 250 "},"á":{"ha":833,"x_min":0,"x_max":0,"o":"m 722 0 l 583 0 l 583 78 l 468 0 l 361 0 b 111 250 224 0 111 113 l 111 458 b 361 708 111 597 224 708 l 468 708 l 583 631 l 583 708 l 722 708 m 250 250 b 361 139 250 189 300 139 l 425 139 l 583 246 l 583 463 l 425 569 l 361 569 b 250 458 300 569 250 519 l 250 250 m 572 1044 l 761 1044 l 539 833 l 378 833 "},"ă":{"ha":833,"x_min":0,"x_max":0,"o":"m 722 0 l 583 0 l 583 78 l 468 0 l 361 0 b 111 250 224 0 111 113 l 111 458 b 361 708 111 597 224 708 l 468 708 l 583 631 l 583 708 l 722 708 m 231 1049 l 369 1049 l 369 1047 b 444 972 369 1006 403 972 b 518 1047 485 972 518 1006 l 518 1049 l 657 1049 l 657 1047 b 444 833 657 929 561 833 b 231 1047 326 833 231 929 m 250 250 b 361 139 250 189 300 139 l 425 139 l 583 246 l 583 463 l 425 569 l 361 569 b 250 458 300 569 250 519 l 250 250 "},"â":{"ha":833,"x_min":0,"x_max":0,"o":"m 722 0 l 583 0 l 583 78 l 468 0 l 361 0 b 111 250 224 0 111 113 l 111 458 b 361 708 111 597 224 708 l 468 708 l 583 631 l 583 708 l 722 708 m 371 1044 l 518 1044 l 699 833 l 538 833 l 444 929 l 351 833 l 190 833 m 250 250 b 361 139 250 189 300 139 l 425 139 l 583 246 l 583 463 l 425 569 l 361 569 b 250 458 300 569 250 519 l 250 250 "},"ä":{"ha":833,"x_min":0,"x_max":0,"o":"m 722 0 l 583 0 l 583 78 l 468 0 l 361 0 b 111 250 224 0 111 113 l 111 458 b 361 708 111 597 224 708 l 468 708 l 583 631 l 583 708 l 722 708 m 243 972 l 396 972 l 396 833 l 243 833 m 250 250 b 361 139 250 189 300 139 l 425 139 l 583 246 l 583 463 l 425 569 l 361 569 b 250 458 300 569 250 519 l 250 250 m 493 972 l 646 972 l 646 833 l 493 833 "},"à":{"ha":833,"x_min":0,"x_max":0,"o":"m 722 0 l 583 0 l 583 78 l 468 0 l 361 0 b 111 250 224 0 111 113 l 111 458 b 361 708 111 597 224 708 l 468 708 l 583 631 l 583 708 l 722 708 m 289 1044 l 483 833 l 322 833 l 100 1044 m 250 250 b 361 139 250 189 300 139 l 425 139 l 583 246 l 583 463 l 425 569 l 361 569 b 250 458 300 569 250 519 l 250 250 "},"ā":{"ha":833,"x_min":0,"x_max":0,"o":"m 722 0 l 583 0 l 583 78 l 468 0 l 361 0 b 111 250 224 0 111 113 l 111 458 b 361 708 111 597 224 708 l 468 708 l 583 631 l 583 708 l 722 708 m 194 972 l 694 972 l 694 833 l 194 833 m 250 250 b 361 139 250 189 300 139 l 425 139 l 583 246 l 583 463 l 425 569 l 361 569 b 250 458 300 569 250 519 l 250 250 "},"ą":{"ha":833,"x_min":0,"x_max":0,"o":"m 722 0 b 739 -178 568 -157 676 -178 l 739 -317 l 650 -317 b 583 0 472 -317 429 -107 l 583 78 l 468 0 l 361 0 b 111 250 224 0 111 113 l 111 458 b 361 708 111 597 224 708 l 468 708 l 583 631 l 583 708 l 722 708 m 250 250 b 361 139 250 189 300 139 l 425 139 l 583 246 l 583 463 l 425 569 l 361 569 b 250 458 300 569 250 519 l 250 250 "},"å":{"ha":833,"x_min":0,"x_max":0,"o":"m 722 0 l 583 0 l 583 78 l 468 0 l 361 0 b 111 250 224 0 111 113 l 111 458 b 361 708 111 597 224 708 l 468 708 l 583 631 l 583 708 l 722 708 m 250 250 b 361 139 250 189 300 139 l 425 139 l 583 246 l 583 463 l 425 569 l 361 569 b 250 458 300 569 250 519 l 250 250 m 268 1008 b 444 1183 268 1106 346 1183 b 619 1008 540 1183 619 1106 b 444 833 619 913 540 833 b 268 1008 346 833 268 911 m 407 1008 b 444 972 407 989 422 972 b 481 1008 464 972 481 989 b 444 1044 481 1029 464 1044 b 407 1008 422 1044 407 1029 "},"ã":{"ha":833,"x_min":0,"x_max":0,"o":"m 722 0 l 583 0 l 583 78 l 468 0 l 361 0 b 111 250 224 0 111 113 l 111 458 b 361 708 111 597 224 708 l 468 708 l 583 631 l 583 708 l 722 708 m 197 860 b 414 1000 232 960 300 1004 l 565 936 b 622 982 600 938 610 949 l 753 938 b 536 797 718 838 650 793 l 385 861 b 328 815 350 860 340 849 l 197 860 m 250 250 b 361 139 250 189 300 139 l 425 139 l 583 246 l 583 463 l 425 569 l 361 569 b 250 458 300 569 250 519 l 250 250 "},"æ":{"ha":833,"x_min":0,"x_max":0,"o":"m 486 690 b 576 708 513 701 543 708 b 806 458 719 708 806 593 l 806 322 l 486 322 l 486 251 b 576 140 486 190 515 140 b 667 251 638 140 667 190 l 806 251 b 576 0 806 114 715 0 b 486 18 543 0 513 7 l 486 0 l 347 0 l 347 46 l 274 0 l 236 0 b 28 250 113 0 28 85 l 28 458 b 236 708 28 625 113 708 l 274 708 l 347 663 l 347 708 l 486 708 m 167 250 b 225 139 167 189 178 139 l 233 139 l 347 211 l 347 497 l 233 569 l 225 569 b 167 458 178 569 167 519 l 167 250 m 667 433 l 667 458 b 576 569 667 521 639 569 b 486 458 514 569 486 519 l 486 433 "},"b":{"ha":833,"x_min":0,"x_max":0,"o":"m 250 986 l 250 631 l 365 708 l 472 708 b 722 458 610 708 722 597 l 722 250 b 472 0 722 113 610 0 l 365 0 l 250 78 l 250 0 l 111 0 l 111 986 m 408 139 l 472 139 b 583 250 533 139 583 189 l 583 458 b 472 569 583 519 533 569 l 408 569 l 250 463 l 250 246 "},"c":{"ha":833,"x_min":0,"x_max":0,"o":"m 583 458 b 472 569 583 521 535 569 l 361 569 b 250 458 299 569 250 519 l 250 251 b 361 140 250 190 300 140 l 472 140 b 583 251 533 140 583 190 l 583 265 l 722 265 l 722 251 b 472 0 722 114 611 0 l 361 0 b 111 251 224 0 111 114 l 111 458 b 361 708 111 597 224 708 l 472 708 b 722 458 611 708 722 597 l 722 444 l 583 444 l 583 458 "},"ć":{"ha":833,"x_min":0,"x_max":0,"o":"m 583 458 b 472 569 583 521 535 569 l 361 569 b 250 458 299 569 250 519 l 250 251 b 361 140 250 190 300 140 l 472 140 b 583 251 533 140 583 190 l 583 265 l 722 265 l 722 251 b 472 0 722 114 611 0 l 361 0 b 111 251 224 0 111 114 l 111 458 b 361 708 111 597 224 708 l 472 708 b 722 458 611 708 722 597 l 722 444 l 583 444 l 583 458 m 544 1044 l 733 1044 l 511 833 l 350 833 "},"č":{"ha":833,"x_min":0,"x_max":0,"o":"m 583 458 b 472 569 583 521 535 569 l 361 569 b 250 458 299 569 250 519 l 250 251 b 361 140 250 190 300 140 l 472 140 b 583 251 533 140 583 190 l 583 265 l 722 265 l 722 251 b 472 0 722 114 611 0 l 361 0 b 111 251 224 0 111 114 l 111 458 b 361 708 111 597 224 708 l 472 708 b 722 458 611 708 722 597 l 722 444 l 583 444 l 583 458 m 324 1044 l 417 949 l 510 1044 l 671 1044 l 490 833 l 343 833 l 163 1044 "},"ç":{"ha":833,"x_min":0,"x_max":0,"o":"m 583 458 b 472 569 583 521 535 569 l 361 569 b 250 458 299 569 250 519 l 250 251 b 361 140 250 190 300 140 l 472 140 b 583 251 533 140 583 190 l 583 265 l 722 265 l 722 251 b 489 0 722 119 619 10 l 483 -33 l 496 -33 b 671 -212 592 -33 671 -114 b 496 -389 671 -308 592 -389 l 338 -389 l 338 -250 l 496 -250 b 532 -212 514 -250 532 -232 b 496 -172 532 -190 515 -172 l 390 -172 l 331 -60 l 350 0 b 111 251 218 6 111 118 l 111 458 b 361 708 111 597 224 708 l 472 708 b 722 458 611 708 722 597 l 722 444 l 583 444 l 583 458 "},"ċ":{"ha":833,"x_min":0,"x_max":0,"o":"m 583 458 b 472 569 583 521 535 569 l 361 569 b 250 458 299 569 250 519 l 250 251 b 361 140 250 190 300 140 l 472 140 b 583 251 533 140 583 190 l 583 265 l 722 265 l 722 251 b 472 0 722 114 611 0 l 361 0 b 111 251 224 0 111 114 l 111 458 b 361 708 111 597 224 708 l 472 708 b 722 458 611 708 722 597 l 722 444 l 583 444 l 583 458 m 340 972 l 493 972 l 493 833 l 340 833 "},"d":{"ha":833,"x_min":0,"x_max":0,"o":"m 722 0 l 583 0 l 583 78 l 468 0 l 361 0 b 111 250 224 0 111 113 l 111 458 b 361 708 111 597 224 708 l 468 708 l 583 631 l 583 986 l 722 986 m 250 250 b 361 139 250 189 300 139 l 425 139 l 583 246 l 583 463 l 425 569 l 361 569 b 250 458 300 569 250 519 l 250 250 "},"ď":{"ha":833,"x_min":0,"x_max":0,"o":"m 722 0 l 583 0 l 583 78 l 468 0 l 361 0 b 111 250 224 0 111 113 l 111 458 b 361 708 111 597 224 708 l 468 708 l 583 631 l 583 986 l 722 986 m 250 250 b 361 139 250 189 300 139 l 425 139 l 583 246 l 583 463 l 425 569 l 361 569 b 250 458 300 569 250 519 l 250 250 m 833 986 l 972 986 l 972 846 l 944 694 l 861 694 l 833 846 "},"đ":{"ha":833,"x_min":0,"x_max":0,"o":"m 722 919 l 792 919 l 792 781 l 722 781 l 722 0 l 583 0 l 583 78 l 468 0 l 361 0 b 111 250 224 0 111 113 l 111 458 b 361 708 111 597 224 708 l 468 708 l 583 631 l 583 781 l 292 781 l 292 919 l 583 919 l 583 986 l 722 986 m 250 250 b 361 139 250 189 300 139 l 425 139 l 583 246 l 583 463 l 425 569 l 361 569 b 250 458 300 569 250 519 l 250 250 "},"e":{"ha":833,"x_min":0,"x_max":0,"o":"m 722 322 l 250 322 l 250 251 b 361 140 250 190 300 140 l 472 140 b 583 251 533 140 583 190 l 583 265 l 722 265 l 722 251 b 472 0 722 114 611 0 l 361 0 b 111 251 224 0 111 114 l 111 458 b 361 708 111 597 224 708 l 472 708 b 722 472 607 708 715 604 m 583 433 l 583 458 b 472 569 583 521 535 569 l 361 569 b 250 458 299 569 250 519 l 250 433 "},"é":{"ha":833,"x_min":0,"x_max":0,"o":"m 722 322 l 250 322 l 250 251 b 361 140 250 190 300 140 l 472 140 b 583 251 533 140 583 190 l 583 265 l 722 265 l 722 251 b 472 0 722 114 611 0 l 361 0 b 111 251 224 0 111 114 l 111 458 b 361 708 111 597 224 708 l 472 708 b 722 472 607 708 715 604 m 583 433 l 583 458 b 472 569 583 521 535 569 l 361 569 b 250 458 299 569 250 519 l 250 433 m 524 1044 l 713 1044 l 490 833 l 329 833 "},"ě":{"ha":833,"x_min":0,"x_max":0,"o":"m 722 322 l 250 322 l 250 251 b 361 140 250 190 300 140 l 472 140 b 583 251 533 140 583 190 l 583 265 l 722 265 l 722 251 b 472 0 722 114 611 0 l 361 0 b 111 251 224 0 111 114 l 111 458 b 361 708 111 597 224 708 l 472 708 b 722 472 607 708 715 604 m 324 1044 l 417 949 l 510 1044 l 671 1044 l 490 833 l 343 833 l 163 1044 m 583 433 l 583 458 b 472 569 583 521 535 569 l 361 569 b 250 458 299 569 250 519 l 250 433 "},"ê":{"ha":833,"x_min":0,"x_max":0,"o":"m 722 322 l 250 322 l 250 251 b 361 140 250 190 300 140 l 472 140 b 583 251 533 140 583 190 l 583 265 l 722 265 l 722 251 b 472 0 722 114 611 0 l 361 0 b 111 251 224 0 111 114 l 111 458 b 361 708 111 597 224 708 l 472 708 b 722 472 607 708 715 604 m 343 1044 l 490 1044 l 671 833 l 510 833 l 417 929 l 324 833 l 163 833 m 583 433 l 583 458 b 472 569 583 521 535 569 l 361 569 b 250 458 299 569 250 519 l 250 433 "},"ë":{"ha":833,"x_min":0,"x_max":0,"o":"m 722 322 l 250 322 l 250 251 b 361 140 250 190 300 140 l 472 140 b 583 251 533 140 583 190 l 583 265 l 722 265 l 722 251 b 472 0 722 114 611 0 l 361 0 b 111 251 224 0 111 114 l 111 458 b 361 708 111 597 224 708 l 472 708 b 722 472 607 708 715 604 m 215 972 l 368 972 l 368 833 l 215 833 m 583 433 l 583 458 b 472 569 583 521 535 569 l 361 569 b 250 458 299 569 250 519 l 250 433 m 465 972 l 618 972 l 618 833 l 465 833 "},"ė":{"ha":833,"x_min":0,"x_max":0,"o":"m 722 322 l 250 322 l 250 251 b 361 140 250 190 300 140 l 472 140 b 583 251 533 140 583 190 l 583 265 l 722 265 l 722 251 b 472 0 722 114 611 0 l 361 0 b 111 251 224 0 111 114 l 111 458 b 361 708 111 597 224 708 l 472 708 b 722 472 607 708 715 604 m 583 433 l 583 458 b 472 569 583 521 535 569 l 361 569 b 250 458 299 569 250 519 l 250 433 m 340 972 l 493 972 l 493 833 l 340 833 "},"è":{"ha":833,"x_min":0,"x_max":0,"o":"m 722 322 l 250 322 l 250 251 b 361 140 250 190 300 140 l 472 140 b 583 251 533 140 583 190 l 583 265 l 722 265 l 722 251 b 472 0 722 114 611 0 l 361 0 b 111 251 224 0 111 114 l 111 458 b 361 708 111 597 224 708 l 472 708 b 722 472 607 708 715 604 m 310 1044 l 504 833 l 343 833 l 121 1044 m 583 433 l 583 458 b 472 569 583 521 535 569 l 361 569 b 250 458 299 569 250 519 l 250 433 "},"ē":{"ha":833,"x_min":0,"x_max":0,"o":"m 722 322 l 250 322 l 250 251 b 361 140 250 190 300 140 l 472 140 b 583 251 533 140 583 190 l 583 265 l 722 265 l 722 251 b 472 0 722 114 611 0 l 361 0 b 111 251 224 0 111 114 l 111 458 b 361 708 111 597 224 708 l 472 708 b 722 472 607 708 715 604 m 167 972 l 667 972 l 667 833 l 167 833 m 583 433 l 583 458 b 472 569 583 521 535 569 l 361 569 b 250 458 299 569 250 519 l 250 433 "},"ę":{"ha":833,"x_min":0,"x_max":0,"o":"m 722 322 l 250 322 l 250 251 b 361 140 250 190 300 140 l 472 140 b 583 251 533 140 583 190 l 583 265 l 722 265 l 722 251 b 531 7 722 133 640 33 b 564 -153 401 -133 504 -153 l 564 -292 l 475 -292 b 378 0 310 -292 261 -111 l 361 0 b 111 251 224 0 111 114 l 111 458 b 361 708 111 597 224 708 l 472 708 b 722 472 607 708 715 604 m 583 433 l 583 458 b 472 569 583 521 535 569 l 361 569 b 250 458 299 569 250 519 l 250 433 "},"f":{"ha":833,"x_min":0,"x_max":0,"o":"m 722 986 l 722 847 l 590 847 b 479 736 528 847 479 799 l 479 667 l 722 667 l 722 528 l 479 528 l 479 0 l 340 0 l 340 528 l 111 528 l 111 667 l 340 667 l 340 736 b 590 986 340 875 451 986 "},"g":{"ha":833,"x_min":0,"x_max":0,"o":"m 722 -40 b 472 -292 722 -178 611 -292 l 361 -292 b 111 -40 224 -292 111 -178 l 250 -40 b 361 -151 250 -101 300 -151 l 472 -151 b 583 -40 533 -151 583 -101 l 583 78 l 468 0 l 361 0 b 111 250 224 0 111 113 l 111 458 b 361 708 111 597 224 708 l 468 708 l 583 631 l 583 708 l 722 708 l 722 -40 m 250 250 b 361 139 250 189 300 139 l 425 139 l 583 246 l 583 463 l 425 569 l 361 569 b 250 458 300 569 250 519 l 250 250 "},"ğ":{"ha":833,"x_min":0,"x_max":0,"o":"m 722 -40 b 472 -292 722 -178 611 -292 l 361 -292 b 111 -40 224 -292 111 -178 l 250 -40 b 361 -151 250 -101 300 -151 l 472 -151 b 583 -40 533 -151 583 -101 l 583 78 l 468 0 l 361 0 b 111 250 224 0 111 113 l 111 458 b 361 708 111 597 224 708 l 468 708 l 583 631 l 583 708 l 722 708 l 722 -40 m 203 1049 l 342 1049 l 342 1047 b 417 972 342 1006 375 972 b 490 1047 457 972 490 1006 l 490 1049 l 629 1049 l 629 1047 b 417 833 629 929 533 833 b 203 1047 299 833 203 929 m 250 250 b 361 139 250 189 300 139 l 425 139 l 583 246 l 583 463 l 425 569 l 361 569 b 250 458 300 569 250 519 l 250 250 "},"ģ":{"ha":833,"x_min":0,"x_max":0,"o":"m 722 -40 b 472 -292 722 -178 611 -292 l 361 -292 b 111 -40 224 -292 111 -178 l 250 -40 b 361 -151 250 -101 300 -151 l 472 -151 b 583 -40 533 -151 583 -101 l 583 78 l 468 0 l 361 0 b 111 250 224 0 111 113 l 111 458 b 361 708 111 597 224 708 l 468 708 l 583 631 l 583 708 l 722 708 l 722 -40 m 250 250 b 361 139 250 189 300 139 l 425 139 l 583 246 l 583 463 l 425 569 l 361 569 b 250 458 300 569 250 519 l 250 250 m 367 935 l 511 1125 l 572 1125 l 472 833 l 333 833 "},"ġ":{"ha":833,"x_min":0,"x_max":0,"o":"m 722 -40 b 472 -292 722 -178 611 -292 l 361 -292 b 111 -40 224 -292 111 -178 l 250 -40 b 361 -151 250 -101 300 -151 l 472 -151 b 583 -40 533 -151 583 -101 l 583 78 l 468 0 l 361 0 b 111 250 224 0 111 113 l 111 458 b 361 708 111 597 224 708 l 468 708 l 583 631 l 583 708 l 722 708 l 722 -40 m 250 250 b 361 139 250 189 300 139 l 425 139 l 583 246 l 583 463 l 425 569 l 361 569 b 250 458 300 569 250 519 l 250 250 m 340 972 l 493 972 l 493 833 l 340 833 "},"h":{"ha":833,"x_min":0,"x_max":0,"o":"m 250 986 l 250 631 l 365 708 l 472 708 b 722 458 610 708 722 597 l 722 0 l 583 0 l 583 458 b 472 569 583 519 533 569 l 408 569 l 250 463 l 250 0 l 111 0 l 111 986 "},"ħ":{"ha":833,"x_min":0,"x_max":0,"o":"m 250 986 l 250 919 l 542 919 l 542 781 l 250 781 l 250 631 l 365 708 l 472 708 b 722 458 610 708 722 597 l 722 0 l 583 0 l 583 458 b 472 569 583 519 533 569 l 408 569 l 250 463 l 250 0 l 111 0 l 111 781 l 42 781 l 42 919 l 111 919 l 111 986 "},"i":{"ha":833,"x_min":0,"x_max":0,"o":"m 722 139 l 722 0 l 111 0 l 111 139 l 340 139 l 340 569 l 111 569 l 111 708 l 479 708 l 479 139 m 326 972 l 479 972 l 479 833 l 326 833 "},"ı":{"ha":833,"x_min":0,"x_max":0,"o":"m 722 139 l 722 0 l 111 0 l 111 139 l 340 139 l 340 569 l 111 569 l 111 708 l 479 708 l 479 139 "},"í":{"ha":833,"x_min":0,"x_max":0,"o":"m 722 139 l 722 0 l 111 0 l 111 139 l 340 139 l 340 569 l 111 569 l 111 708 l 479 708 l 479 139 m 544 1044 l 733 1044 l 511 833 l 350 833 "},"î":{"ha":833,"x_min":0,"x_max":0,"o":"m 722 139 l 722 0 l 111 0 l 111 139 l 340 139 l 340 569 l 111 569 l 111 708 l 479 708 l 479 139 m 343 1044 l 490 1044 l 671 833 l 510 833 l 417 929 l 324 833 l 163 833 "},"ï":{"ha":833,"x_min":0,"x_max":0,"o":"m 722 139 l 722 0 l 111 0 l 111 139 l 340 139 l 340 569 l 111 569 l 111 708 l 479 708 l 479 139 m 215 972 l 368 972 l 368 833 l 215 833 m 465 972 l 618 972 l 618 833 l 465 833 "},"ì":{"ha":833,"x_min":0,"x_max":0,"o":"m 722 139 l 722 0 l 111 0 l 111 139 l 340 139 l 340 569 l 111 569 l 111 708 l 479 708 l 479 139 m 261 1044 l 456 833 l 294 833 l 72 1044 "},"ī":{"ha":833,"x_min":0,"x_max":0,"o":"m 722 139 l 722 0 l 111 0 l 111 139 l 340 139 l 340 569 l 111 569 l 111 708 l 479 708 l 479 139 m 167 972 l 667 972 l 667 833 l 167 833 "},"į":{"ha":833,"x_min":0,"x_max":0,"o":"m 722 139 l 722 0 l 524 0 b 564 -153 406 -135 506 -153 l 564 -292 l 475 -292 b 378 0 310 -292 261 -111 l 111 0 l 111 139 l 340 139 l 340 569 l 111 569 l 111 708 l 479 708 l 479 139 m 340 972 l 493 972 l 493 833 l 340 833 "},"j":{"ha":833,"x_min":0,"x_max":0,"o":"m 722 -40 b 472 -292 722 -178 610 -292 l 361 -292 b 111 -40 222 -292 111 -178 l 111 0 l 250 0 l 250 -40 b 361 -151 250 -101 300 -151 l 472 -151 b 583 -40 533 -151 583 -101 l 583 569 l 285 569 l 285 708 l 722 708 m 569 972 l 722 972 l 722 833 l 569 833 "},"k":{"ha":833,"x_min":0,"x_max":0,"o":"m 111 0 l 111 986 l 250 986 l 250 424 l 379 424 l 558 708 l 722 708 l 500 354 l 722 0 l 558 0 l 379 285 l 250 285 l 250 0 "},"ķ":{"ha":833,"x_min":0,"x_max":0,"o":"m 111 0 l 111 986 l 250 986 l 250 424 l 379 424 l 558 708 l 722 708 l 500 354 l 722 0 l 558 0 l 379 285 l 250 285 l 250 0 m 360 -139 l 499 -139 l 465 -240 l 321 -431 l 260 -431 "},"l":{"ha":833,"x_min":0,"x_max":0,"o":"m 722 139 l 722 0 l 111 0 l 111 139 l 340 139 l 340 847 l 111 847 l 111 986 l 479 986 l 479 139 "},"ĺ":{"ha":833,"x_min":0,"x_max":0,"o":"m 722 139 l 722 0 l 111 0 l 111 139 l 340 139 l 340 847 l 111 847 l 111 986 l 479 986 l 479 139 m 524 1308 l 713 1308 l 490 1097 l 329 1097 "},"ľ":{"ha":833,"x_min":0,"x_max":0,"o":"m 722 139 l 722 0 l 111 0 l 111 139 l 340 139 l 340 847 l 111 847 l 111 986 l 479 986 l 479 139 m 590 986 l 729 986 l 729 846 l 701 694 l 618 694 l 590 846 "},"ļ":{"ha":833,"x_min":0,"x_max":0,"o":"m 722 139 l 722 0 l 111 0 l 111 139 l 340 139 l 340 847 l 111 847 l 111 986 l 479 986 l 479 139 m 360 -139 l 499 -139 l 465 -240 l 321 -431 l 260 -431 "},"ł":{"ha":833,"x_min":0,"x_max":0,"o":"m 479 474 l 479 139 l 722 139 l 722 0 l 111 0 l 111 139 l 340 139 l 340 421 l 175 360 l 176 508 l 340 569 l 340 847 l 111 847 l 111 986 l 479 986 l 479 621 l 660 689 l 660 540 "},"m":{"ha":833,"x_min":0,"x_max":0,"o":"m 222 708 l 222 628 l 306 708 l 317 708 b 468 610 390 708 442 676 l 569 708 l 581 708 b 750 486 690 708 750 639 l 750 0 l 611 0 l 611 486 b 608 550 611 513 611 535 l 486 433 l 486 0 l 347 0 l 347 486 b 344 550 347 513 347 535 l 222 433 l 222 0 l 83 0 l 83 708 m 310 592 l 301 592 m 574 592 l 565 592 "},"n":{"ha":833,"x_min":0,"x_max":0,"o":"m 250 708 l 250 631 l 365 708 l 472 708 b 722 458 610 708 722 597 l 722 0 l 583 0 l 583 458 b 472 569 583 519 533 569 l 408 569 l 250 463 l 250 0 l 111 0 l 111 708 "},"ń":{"ha":833,"x_min":0,"x_max":0,"o":"m 250 708 l 250 631 l 365 708 l 472 708 b 722 458 610 708 722 597 l 722 0 l 583 0 l 583 458 b 472 569 583 519 533 569 l 408 569 l 250 463 l 250 0 l 111 0 l 111 708 m 544 1044 l 733 1044 l 511 833 l 350 833 "},"ň":{"ha":833,"x_min":0,"x_max":0,"o":"m 250 708 l 250 631 l 365 708 l 472 708 b 722 458 610 708 722 597 l 722 0 l 583 0 l 583 458 b 472 569 583 519 533 569 l 408 569 l 250 463 l 250 0 l 111 0 l 111 708 m 324 1044 l 417 949 l 510 1044 l 671 1044 l 490 833 l 343 833 l 163 1044 "},"ņ":{"ha":833,"x_min":0,"x_max":0,"o":"m 250 708 l 250 631 l 365 708 l 472 708 b 722 458 610 708 722 597 l 722 0 l 583 0 l 583 458 b 472 569 583 519 533 569 l 408 569 l 250 463 l 250 0 l 111 0 l 111 708 m 360 -139 l 499 -139 l 465 -240 l 321 -431 l 260 -431 "},"ŋ":{"ha":833,"x_min":0,"x_max":0,"o":"m 361 -292 l 361 -153 l 472 -153 b 583 -42 535 -153 583 -104 l 583 458 b 472 569 583 519 533 569 l 408 569 l 250 463 l 250 0 l 111 0 l 111 708 l 250 708 l 250 631 l 365 708 l 472 708 b 722 458 610 708 722 597 l 722 -42 b 472 -292 722 -181 611 -292 "},"ñ":{"ha":833,"x_min":0,"x_max":0,"o":"m 250 708 l 250 631 l 365 708 l 472 708 b 722 458 610 708 722 597 l 722 0 l 583 0 l 583 458 b 472 569 583 519 533 569 l 408 569 l 250 463 l 250 0 l 111 0 l 111 708 m 139 860 b 356 1000 174 960 242 1004 l 507 936 b 564 982 542 938 551 949 l 694 938 b 478 797 660 838 592 793 l 326 861 b 269 815 292 860 282 849 l 139 860 "},"o":{"ha":833,"x_min":0,"x_max":0,"o":"m 472 139 b 583 249 535 139 583 186 l 583 458 b 472 569 583 521 535 569 l 361 569 b 250 458 299 569 250 521 l 250 249 b 361 139 250 186 299 140 l 472 139 m 111 458 b 361 708 111 597 222 708 l 472 708 b 722 458 611 708 722 597 l 722 249 b 472 0 722 110 611 0 l 361 0 b 111 249 222 0 111 110 "},"ó":{"ha":833,"x_min":0,"x_max":0,"o":"m 472 139 b 583 249 535 139 583 186 l 583 458 b 472 569 583 521 535 569 l 361 569 b 250 458 299 569 250 521 l 250 249 b 361 139 250 186 299 140 l 472 139 m 111 458 b 361 708 111 597 222 708 l 472 708 b 722 458 611 708 722 597 l 722 249 b 472 0 722 110 611 0 l 361 0 b 111 249 222 0 111 110 m 524 1044 l 713 1044 l 490 833 l 329 833 "},"ô":{"ha":833,"x_min":0,"x_max":0,"o":"m 472 139 b 583 249 535 139 583 186 l 583 458 b 472 569 583 521 535 569 l 361 569 b 250 458 299 569 250 521 l 250 249 b 361 139 250 186 299 140 l 472 139 m 111 458 b 361 708 111 597 222 708 l 472 708 b 722 458 611 708 722 597 l 722 249 b 472 0 722 110 611 0 l 361 0 b 111 249 222 0 111 110 m 343 1044 l 490 1044 l 671 833 l 510 833 l 417 929 l 324 833 l 163 833 "},"ö":{"ha":833,"x_min":0,"x_max":0,"o":"m 472 139 b 583 249 535 139 583 186 l 583 458 b 472 569 583 521 535 569 l 361 569 b 250 458 299 569 250 521 l 250 249 b 361 139 250 186 299 140 l 472 139 m 111 458 b 361 708 111 597 222 708 l 472 708 b 722 458 611 708 722 597 l 722 249 b 472 0 722 110 611 0 l 361 0 b 111 249 222 0 111 110 m 215 972 l 368 972 l 368 833 l 215 833 m 465 972 l 618 972 l 618 833 l 465 833 "},"ò":{"ha":833,"x_min":0,"x_max":0,"o":"m 472 139 b 583 249 535 139 583 186 l 583 458 b 472 569 583 521 535 569 l 361 569 b 250 458 299 569 250 521 l 250 249 b 361 139 250 186 299 140 l 472 139 m 111 458 b 361 708 111 597 222 708 l 472 708 b 722 458 611 708 722 597 l 722 249 b 472 0 722 110 611 0 l 361 0 b 111 249 222 0 111 110 m 310 1044 l 504 833 l 343 833 l 121 1044 "},"ő":{"ha":833,"x_min":0,"x_max":0,"o":"m 472 139 b 583 249 535 139 583 186 l 583 458 b 472 569 583 521 535 569 l 361 569 b 250 458 299 569 250 521 l 250 249 b 361 139 250 186 299 140 l 472 139 m 111 458 b 361 708 111 597 222 708 l 472 708 b 722 458 611 708 722 597 l 722 249 b 472 0 722 110 611 0 l 361 0 b 111 249 222 0 111 110 m 385 1044 l 574 1044 l 351 833 l 190 833 m 663 1044 l 851 1044 l 629 833 l 468 833 "},"ō":{"ha":833,"x_min":0,"x_max":0,"o":"m 472 139 b 583 249 535 139 583 186 l 583 458 b 472 569 583 521 535 569 l 361 569 b 250 458 299 569 250 521 l 250 249 b 361 139 250 186 299 140 l 472 139 m 111 458 b 361 708 111 597 222 708 l 472 708 b 722 458 611 708 722 597 l 722 249 b 472 0 722 110 611 0 l 361 0 b 111 249 222 0 111 110 m 167 972 l 667 972 l 667 833 l 167 833 "},"ø":{"ha":833,"x_min":0,"x_max":0,"o":"m 472 139 b 583 249 535 139 583 186 l 583 458 b 557 531 583 486 574 511 l 411 139 l 472 139 m 111 458 b 361 708 111 597 222 708 l 472 708 l 475 708 l 525 840 l 674 840 l 610 668 b 722 458 678 624 722 547 l 722 249 b 472 0 722 110 611 0 l 361 0 l 360 0 l 310 -132 l 161 -132 l 225 39 b 111 249 157 83 111 160 m 250 249 b 276 176 250 221 260 196 l 424 569 l 361 569 b 250 458 299 569 250 521 l 250 249 "},"õ":{"ha":833,"x_min":0,"x_max":0,"o":"m 472 139 b 583 249 535 139 583 186 l 583 458 b 472 569 583 521 535 569 l 361 569 b 250 458 299 569 250 521 l 250 249 b 361 139 250 186 299 140 l 472 139 m 111 458 b 361 708 111 597 222 708 l 472 708 b 722 458 611 708 722 597 l 722 249 b 472 0 722 110 611 0 l 361 0 b 111 249 222 0 111 110 m 139 860 b 356 1000 174 960 242 1004 l 507 936 b 564 982 542 938 551 949 l 694 938 b 478 797 660 838 592 793 l 326 861 b 269 815 292 860 282 849 l 139 860 "},"œ":{"ha":833,"x_min":0,"x_max":0,"o":"m 257 140 b 347 251 318 140 347 190 l 347 458 b 257 569 347 521 319 569 b 167 458 194 569 167 519 l 167 251 b 257 140 167 190 196 140 m 28 458 b 257 708 28 597 119 708 b 417 643 324 708 378 683 b 576 708 457 683 511 708 b 806 458 719 708 806 593 l 806 322 l 486 322 l 486 251 b 576 140 486 190 515 140 b 667 251 638 140 667 190 l 806 251 b 576 0 806 114 715 0 b 417 67 510 0 456 26 b 257 0 378 25 322 0 b 28 251 115 0 28 118 m 667 433 l 667 458 b 576 569 667 521 639 569 b 486 458 514 569 486 519 l 486 433 "},"p":{"ha":833,"x_min":0,"x_max":0,"o":"m 111 708 l 250 708 l 250 631 l 365 708 l 472 708 b 722 458 610 708 722 596 l 722 250 b 472 0 722 111 610 0 l 365 0 l 250 78 l 250 -292 l 111 -292 m 408 139 l 472 139 b 583 250 533 139 583 189 l 583 458 b 472 569 583 519 533 569 l 408 569 l 250 463 l 250 246 "},"þ":{"ha":833,"x_min":0,"x_max":0,"o":"m 111 986 l 250 986 l 250 631 l 365 708 l 472 708 b 722 458 610 708 722 596 l 722 250 b 472 0 722 111 610 0 l 365 0 l 250 78 l 250 -292 l 111 -292 m 408 139 l 472 139 b 583 250 533 139 583 189 l 583 458 b 472 569 583 519 533 569 l 408 569 l 250 463 l 250 246 "},"q":{"ha":833,"x_min":0,"x_max":0,"o":"m 583 -292 l 583 78 l 468 0 l 361 0 b 111 250 224 0 111 111 l 111 458 b 361 708 111 596 224 708 l 468 708 l 583 631 l 583 708 l 722 708 l 722 -292 m 250 250 b 361 139 250 189 300 139 l 425 139 l 583 246 l 583 463 l 425 569 l 361 569 b 250 458 300 569 250 519 l 250 250 "},"r":{"ha":833,"x_min":0,"x_max":0,"o":"m 250 708 l 250 597 l 415 708 l 472 708 b 722 458 610 708 722 597 l 722 403 l 583 403 l 583 458 b 472 569 583 519 533 569 l 458 569 l 250 429 l 250 0 l 111 0 l 111 708 "},"ŕ":{"ha":833,"x_min":0,"x_max":0,"o":"m 250 708 l 250 597 l 415 708 l 472 708 b 722 458 610 708 722 597 l 722 403 l 583 403 l 583 458 b 472 569 583 519 533 569 l 458 569 l 250 429 l 250 0 l 111 0 l 111 708 m 544 1044 l 733 1044 l 511 833 l 350 833 "},"ř":{"ha":833,"x_min":0,"x_max":0,"o":"m 250 708 l 250 597 l 415 708 l 472 708 b 722 458 610 708 722 597 l 722 403 l 583 403 l 583 458 b 472 569 583 519 533 569 l 458 569 l 250 429 l 250 0 l 111 0 l 111 708 m 324 1044 l 417 949 l 510 1044 l 671 1044 l 490 833 l 343 833 l 163 1044 "},"ŗ":{"ha":833,"x_min":0,"x_max":0,"o":"m 250 708 l 250 597 l 415 708 l 472 708 b 722 458 610 708 722 597 l 722 403 l 583 403 l 583 458 b 472 569 583 519 533 569 l 458 569 l 250 429 l 250 0 l 111 0 l 111 708 m 124 -139 l 263 -139 l 229 -240 l 85 -431 l 24 -431 "},"s":{"ha":833,"x_min":0,"x_max":0,"o":"m 250 233 l 250 206 b 346 139 250 167 286 139 l 486 139 b 583 196 551 139 583 161 b 121 521 583 353 121 251 b 343 708 121 633 211 708 l 476 708 b 699 501 601 708 699 618 l 699 489 l 560 489 l 560 501 b 476 569 560 540 525 569 l 343 569 b 260 521 285 569 260 550 b 722 196 260 408 722 479 b 486 0 722 79 626 0 l 346 0 b 111 206 211 0 111 88 l 111 233 "},"ś":{"ha":833,"x_min":0,"x_max":0,"o":"m 250 233 l 250 206 b 346 139 250 167 286 139 l 486 139 b 583 196 551 139 583 161 b 121 521 583 353 121 251 b 343 708 121 633 211 708 l 476 708 b 699 501 601 708 699 618 l 699 489 l 560 489 l 560 501 b 476 569 560 540 525 569 l 343 569 b 260 521 285 569 260 550 b 722 196 260 408 722 479 b 486 0 722 79 626 0 l 346 0 b 111 206 211 0 111 88 l 111 233 m 544 1044 l 733 1044 l 511 833 l 350 833 "},"š":{"ha":833,"x_min":0,"x_max":0,"o":"m 250 233 l 250 206 b 346 139 250 167 286 139 l 486 139 b 583 196 551 139 583 161 b 121 521 583 353 121 251 b 343 708 121 633 211 708 l 476 708 b 699 501 601 708 699 618 l 699 489 l 560 489 l 560 501 b 476 569 560 540 525 569 l 343 569 b 260 521 285 569 260 550 b 722 196 260 408 722 479 b 486 0 722 79 626 0 l 346 0 b 111 206 211 0 111 88 l 111 233 m 324 1044 l 417 949 l 510 1044 l 671 1044 l 490 833 l 343 833 l 163 1044 "},"ş":{"ha":833,"x_min":0,"x_max":0,"o":"m 250 233 l 250 206 b 346 139 250 167 286 139 l 486 139 b 583 196 551 139 583 161 b 121 521 583 353 121 251 b 343 708 121 633 211 708 l 476 708 b 699 501 601 708 699 618 l 699 489 l 560 489 l 560 501 b 476 569 560 540 525 569 l 343 569 b 260 521 285 569 260 550 b 722 196 260 408 722 479 b 488 0 722 79 626 0 l 482 -33 l 494 -33 b 669 -212 590 -33 669 -114 b 494 -389 669 -308 590 -389 l 336 -389 l 336 -250 l 494 -250 b 531 -212 513 -250 531 -232 b 494 -172 531 -190 514 -172 l 389 -172 l 329 -60 l 349 0 l 346 0 b 111 206 211 0 111 88 l 111 233 "},"ș":{"ha":833,"x_min":0,"x_max":0,"o":"m 250 233 l 250 206 b 346 139 250 167 286 139 l 486 139 b 583 196 551 139 583 161 b 121 521 583 353 121 251 b 343 708 121 633 211 708 l 476 708 b 699 501 601 708 699 618 l 699 489 l 560 489 l 560 501 b 476 569 560 540 525 569 l 343 569 b 260 521 285 569 260 550 b 722 196 260 408 722 479 b 486 0 722 79 626 0 l 346 0 b 111 206 211 0 111 88 l 111 233 m 360 -139 l 499 -139 l 465 -240 l 321 -431 l 260 -431 "},"ß":{"ha":833,"x_min":0,"x_max":0,"o":"m 653 667 b 604 518 653 611 635 560 b 722 306 675 474 722 396 l 722 250 b 472 0 722 111 611 0 l 361 0 l 361 139 l 472 139 b 583 250 535 139 583 188 l 583 306 b 472 417 583 368 535 417 l 361 417 l 361 556 l 403 556 b 514 667 465 556 514 604 l 514 722 b 403 833 514 785 465 833 l 361 833 b 250 722 300 833 250 783 l 250 0 l 111 0 l 111 722 b 361 972 111 861 224 972 l 403 972 b 653 722 542 972 653 861 l 653 667 "},"t":{"ha":833,"x_min":0,"x_max":0,"o":"m 576 0 b 326 250 438 0 326 111 l 326 569 l 111 569 l 111 708 l 326 708 l 326 889 l 465 889 l 465 708 l 722 708 l 722 569 l 465 569 l 465 250 b 576 139 465 188 514 139 l 722 139 l 722 0 l 576 0 "},"ŧ":{"ha":833,"x_min":0,"x_max":0,"o":"m 576 0 b 326 250 438 0 326 111 l 326 301 l 167 301 l 167 440 l 326 440 l 326 569 l 111 569 l 111 708 l 326 708 l 326 889 l 465 889 l 465 708 l 722 708 l 722 569 l 465 569 l 465 440 l 667 440 l 667 301 l 465 301 l 465 250 b 576 139 465 188 514 139 l 722 139 l 722 0 l 576 0 "},"ť":{"ha":833,"x_min":0,"x_max":0,"o":"m 576 0 b 326 250 438 0 326 111 l 326 569 l 111 569 l 111 708 l 326 708 l 326 889 l 465 889 l 465 708 l 722 708 l 722 569 l 465 569 l 465 250 b 576 139 465 188 514 139 l 722 139 l 722 0 l 576 0 m 572 1097 l 711 1097 l 711 957 l 683 806 l 600 806 l 572 957 "},"ţ":{"ha":833,"x_min":0,"x_max":0,"o":"m 111 708 l 326 708 l 326 889 l 465 889 l 465 708 l 722 708 l 722 569 l 465 569 l 465 250 b 576 139 465 188 514 139 l 722 139 l 722 0 l 596 0 l 590 -33 l 603 -33 b 778 -212 699 -33 778 -114 b 603 -389 778 -308 699 -389 l 444 -389 l 444 -250 l 603 -250 b 639 -212 621 -250 639 -232 b 603 -172 639 -190 622 -172 l 497 -172 l 438 -60 l 457 0 l 457 31 b 326 250 379 72 326 154 l 326 569 l 111 569 "},"ț":{"ha":833,"x_min":0,"x_max":0,"o":"m 576 0 b 326 250 438 0 326 111 l 326 569 l 111 569 l 111 708 l 326 708 l 326 889 l 465 889 l 465 708 l 722 708 l 722 569 l 465 569 l 465 250 b 576 139 465 188 514 139 l 722 139 l 722 0 l 576 0 m 468 -139 l 607 -139 l 574 -240 l 429 -431 l 368 -431 "},"u":{"ha":833,"x_min":0,"x_max":0,"o":"m 583 0 l 583 78 l 468 0 l 361 0 b 111 250 224 0 111 111 l 111 708 l 250 708 l 250 250 b 361 139 250 189 300 139 l 425 139 l 583 246 l 583 708 l 722 708 l 722 0 "},"ú":{"ha":833,"x_min":0,"x_max":0,"o":"m 583 0 l 583 78 l 468 0 l 361 0 b 111 250 224 0 111 111 l 111 708 l 250 708 l 250 250 b 361 139 250 189 300 139 l 425 139 l 583 246 l 583 708 l 722 708 l 722 0 m 524 1044 l 713 1044 l 490 833 l 329 833 "},"û":{"ha":833,"x_min":0,"x_max":0,"o":"m 583 0 l 583 78 l 468 0 l 361 0 b 111 250 224 0 111 111 l 111 708 l 250 708 l 250 250 b 361 139 250 189 300 139 l 425 139 l 583 246 l 583 708 l 722 708 l 722 0 m 343 1044 l 490 1044 l 671 833 l 510 833 l 417 929 l 324 833 l 163 833 "},"ü":{"ha":833,"x_min":0,"x_max":0,"o":"m 583 0 l 583 78 l 468 0 l 361 0 b 111 250 224 0 111 111 l 111 708 l 250 708 l 250 250 b 361 139 250 189 300 139 l 425 139 l 583 246 l 583 708 l 722 708 l 722 0 m 215 972 l 368 972 l 368 833 l 215 833 m 465 972 l 618 972 l 618 833 l 465 833 "},"ù":{"ha":833,"x_min":0,"x_max":0,"o":"m 583 0 l 583 78 l 468 0 l 361 0 b 111 250 224 0 111 111 l 111 708 l 250 708 l 250 250 b 361 139 250 189 300 139 l 425 139 l 583 246 l 583 708 l 722 708 l 722 0 m 310 1044 l 504 833 l 343 833 l 121 1044 "},"ű":{"ha":833,"x_min":0,"x_max":0,"o":"m 583 0 l 583 78 l 468 0 l 361 0 b 111 250 224 0 111 111 l 111 708 l 250 708 l 250 250 b 361 139 250 189 300 139 l 425 139 l 583 246 l 583 708 l 722 708 l 722 0 m 385 1044 l 574 1044 l 351 833 l 190 833 m 663 1044 l 851 1044 l 629 833 l 468 833 "},"ū":{"ha":833,"x_min":0,"x_max":0,"o":"m 583 0 l 583 78 l 468 0 l 361 0 b 111 250 224 0 111 111 l 111 708 l 250 708 l 250 250 b 361 139 250 189 300 139 l 425 139 l 583 246 l 583 708 l 722 708 l 722 0 m 167 972 l 667 972 l 667 833 l 167 833 "},"ų":{"ha":833,"x_min":0,"x_max":0,"o":"m 722 0 b 739 -178 568 -157 676 -178 l 739 -317 l 650 -317 b 583 0 472 -317 429 -107 l 583 78 l 468 0 l 361 0 b 111 250 224 0 111 111 l 111 708 l 250 708 l 250 250 b 361 139 250 189 300 139 l 425 139 l 583 246 l 583 708 l 722 708 l 722 0 "},"ů":{"ha":833,"x_min":0,"x_max":0,"o":"m 583 0 l 583 78 l 468 0 l 361 0 b 111 250 224 0 111 111 l 111 708 l 250 708 l 250 250 b 361 139 250 189 300 139 l 425 139 l 583 246 l 583 708 l 722 708 l 722 0 m 240 1008 b 417 1183 240 1106 318 1183 b 592 1008 513 1183 592 1106 b 417 833 592 913 513 833 b 240 1008 318 833 240 911 m 379 1008 b 417 972 379 989 394 972 b 453 1008 436 972 453 989 b 417 1044 453 1029 436 1044 b 379 1008 394 1044 379 1029 "},"v":{"ha":833,"x_min":0,"x_max":0,"o":"m 722 708 l 722 389 l 486 0 l 347 0 l 111 389 l 111 708 l 250 708 l 250 428 l 415 156 l 418 156 l 583 428 l 583 708 "},"w":{"ha":833,"x_min":0,"x_max":0,"o":"m 558 263 l 583 431 l 583 708 l 722 708 l 722 389 l 639 0 l 528 0 l 417 332 l 306 0 l 194 0 l 111 389 l 111 708 l 250 708 l 250 431 l 275 263 l 360 583 l 474 583 "},"ẃ":{"ha":833,"x_min":0,"x_max":0,"o":"m 558 263 l 583 431 l 583 708 l 722 708 l 722 389 l 639 0 l 528 0 l 417 332 l 306 0 l 194 0 l 111 389 l 111 708 l 250 708 l 250 431 l 275 263 l 360 583 l 474 583 m 524 1044 l 713 1044 l 490 833 l 329 833 "},"ŵ":{"ha":833,"x_min":0,"x_max":0,"o":"m 558 263 l 583 431 l 583 708 l 722 708 l 722 389 l 639 0 l 528 0 l 417 332 l 306 0 l 194 0 l 111 389 l 111 708 l 250 708 l 250 431 l 275 263 l 360 583 l 474 583 m 343 1044 l 490 1044 l 671 833 l 510 833 l 417 929 l 324 833 l 163 833 "},"ẅ":{"ha":833,"x_min":0,"x_max":0,"o":"m 558 263 l 583 431 l 583 708 l 722 708 l 722 389 l 639 0 l 528 0 l 417 332 l 306 0 l 194 0 l 111 389 l 111 708 l 250 708 l 250 431 l 275 263 l 360 583 l 474 583 m 215 972 l 368 972 l 368 833 l 215 833 m 465 972 l 618 972 l 618 833 l 465 833 "},"ẁ":{"ha":833,"x_min":0,"x_max":0,"o":"m 558 263 l 583 431 l 583 708 l 722 708 l 722 389 l 639 0 l 528 0 l 417 332 l 306 0 l 194 0 l 111 389 l 111 708 l 250 708 l 250 431 l 275 263 l 360 583 l 474 583 m 310 1044 l 504 833 l 343 833 l 121 1044 "},"x":{"ha":833,"x_min":0,"x_max":0,"o":"m 558 0 l 417 225 l 275 0 l 111 0 l 335 354 l 111 708 l 275 708 l 417 483 l 558 708 l 722 708 l 499 354 l 722 0 "},"y":{"ha":833,"x_min":0,"x_max":0,"o":"m 207 -292 l 335 56 l 111 708 l 258 708 l 410 263 l 574 708 l 722 708 l 356 -292 "},"ý":{"ha":833,"x_min":0,"x_max":0,"o":"m 207 -292 l 335 56 l 111 708 l 258 708 l 410 263 l 574 708 l 722 708 l 356 -292 m 524 1044 l 713 1044 l 490 833 l 329 833 "},"ŷ":{"ha":833,"x_min":0,"x_max":0,"o":"m 207 -292 l 335 56 l 111 708 l 258 708 l 410 263 l 574 708 l 722 708 l 356 -292 m 343 1044 l 490 1044 l 671 833 l 510 833 l 417 929 l 324 833 l 163 833 "},"ÿ":{"ha":833,"x_min":0,"x_max":0,"o":"m 207 -292 l 335 56 l 111 708 l 258 708 l 410 263 l 574 708 l 722 708 l 356 -292 m 215 972 l 368 972 l 368 833 l 215 833 m 465 972 l 618 972 l 618 833 l 465 833 "},"ỳ":{"ha":833,"x_min":0,"x_max":0,"o":"m 207 -292 l 335 56 l 111 708 l 258 708 l 410 263 l 574 708 l 722 708 l 356 -292 m 310 1044 l 504 833 l 343 833 l 121 1044 "},"z":{"ha":833,"x_min":0,"x_max":0,"o":"m 722 708 l 722 569 l 304 139 l 722 139 l 722 0 l 111 0 l 111 139 l 529 569 l 111 569 l 111 708 "},"ź":{"ha":833,"x_min":0,"x_max":0,"o":"m 722 708 l 722 569 l 304 139 l 722 139 l 722 0 l 111 0 l 111 139 l 529 569 l 111 569 l 111 708 m 544 1044 l 733 1044 l 511 833 l 350 833 "},"ž":{"ha":833,"x_min":0,"x_max":0,"o":"m 722 708 l 722 569 l 304 139 l 722 139 l 722 0 l 111 0 l 111 139 l 529 569 l 111 569 l 111 708 m 324 1044 l 417 949 l 510 1044 l 671 1044 l 490 833 l 343 833 l 163 1044 "},"ż":{"ha":833,"x_min":0,"x_max":0,"o":"m 722 708 l 722 569 l 304 139 l 722 139 l 722 0 l 111 0 l 111 139 l 529 569 l 111 569 l 111 708 m 340 972 l 493 972 l 493 833 l 340 833 "},"⁄":{"ha":833,"x_min":0,"x_max":0,"o":"m 111 0 l 111 222 l 583 800 l 583 972 l 722 972 l 722 750 l 250 172 l 250 0 "},"*":{"ha":833,"x_min":0,"x_max":0,"o":"m 486 986 l 486 931 l 450 821 l 526 907 l 575 935 l 644 815 l 596 788 l 483 764 l 596 740 l 644 713 l 575 593 l 526 621 l 450 707 l 486 597 l 486 542 l 347 542 l 347 597 l 383 707 l 307 621 l 258 593 l 189 713 l 238 740 l 350 764 l 238 788 l 189 815 l 258 935 l 307 907 l 383 821 l 347 931 l 347 986 "},"\\":{"ha":833,"x_min":0,"x_max":0,"o":"m 583 172 l 111 750 l 111 972 l 250 972 l 250 800 l 722 222 l 722 0 l 583 0 "},"·":{"ha":833,"x_min":0,"x_max":0,"o":"m 493 528 l 493 389 l 340 389 l 340 528 "},"•":{"ha":833,"x_min":0,"x_max":0,"o":"m 438 528 l 535 486 l 535 375 l 438 333 l 299 333 l 299 528 "},":":{"ha":833,"x_min":0,"x_max":0,"o":"m 493 528 l 493 389 l 340 389 l 340 528 m 340 139 l 493 139 l 493 0 l 340 0 "},",":{"ha":833,"x_min":0,"x_max":0,"o":"m 283 -153 l 383 139 l 522 139 l 489 38 l 344 -153 "},"…":{"ha":833,"x_min":0,"x_max":0,"o":"m 493 139 l 493 0 l 340 0 l 340 139 m 111 139 l 264 139 l 264 0 l 111 0 m 569 139 l 722 139 l 722 0 l 569 0 "},"!":{"ha":833,"x_min":0,"x_max":0,"o":"m 486 972 l 486 461 l 458 310 l 375 310 l 347 461 l 347 972 m 340 139 l 493 139 l 493 0 l 340 0 "},"¡":{"ha":833,"x_min":0,"x_max":0,"o":"m 347 247 l 375 399 l 458 399 l 486 247 l 486 -264 l 347 -264 m 340 708 l 493 708 l 493 569 l 340 569 "},"#":{"ha":833,"x_min":0,"x_max":0,"o":"m 167 0 l 203 264 l 111 264 l 125 403 l 222 403 l 246 569 l 139 569 l 153 708 l 265 708 l 301 972 l 443 972 l 406 708 l 492 708 l 528 972 l 669 972 l 632 708 l 722 708 l 708 569 l 613 569 l 589 403 l 694 403 l 681 264 l 569 264 l 532 0 l 393 0 l 429 264 l 343 264 l 306 0 m 449 403 l 472 569 l 386 569 l 363 403 "},".":{"ha":833,"x_min":0,"x_max":0,"o":"m 493 139 l 493 0 l 340 0 l 340 139 "},"?":{"ha":833,"x_min":0,"x_max":0,"o":"m 347 474 l 583 622 l 583 722 b 472 833 583 785 535 833 l 361 833 b 250 722 300 833 250 783 l 250 674 l 111 674 l 111 722 b 361 972 111 861 224 972 l 472 972 b 722 722 611 972 722 861 l 722 546 l 486 397 l 486 310 l 347 310 m 340 139 l 493 139 l 493 0 l 340 0 "},"¿":{"ha":833,"x_min":0,"x_max":0,"o":"m 486 235 l 250 86 l 250 -14 b 361 -125 250 -76 299 -125 l 472 -125 b 583 -14 533 -125 583 -75 l 583 35 l 722 35 l 722 -14 b 472 -264 722 -153 610 -264 l 361 -264 b 111 -14 222 -264 111 -153 l 111 163 l 347 311 l 347 399 l 486 399 m 340 708 l 493 708 l 493 569 l 340 569 "},"\"":{"ha":833,"x_min":0,"x_max":0,"o":"m 597 986 l 597 846 l 569 694 l 486 694 l 458 846 l 458 986 m 236 986 l 375 986 l 375 846 l 347 694 l 264 694 l 236 846 "},"'":{"ha":833,"x_min":0,"x_max":0,"o":"m 486 986 l 486 846 l 458 694 l 375 694 l 347 846 l 347 986 "},";":{"ha":833,"x_min":0,"x_max":0,"o":"m 293 -153 l 393 139 l 532 139 l 499 38 l 354 -153 m 386 528 l 539 528 l 539 389 l 386 389 "},"/":{"ha":833,"x_min":0,"x_max":0,"o":"m 111 0 l 111 222 l 583 800 l 583 972 l 722 972 l 722 750 l 250 172 l 250 0 "},"_":{"ha":833,"x_min":0,"x_max":0,"o":"m 14 -185 l 819 -185 l 819 -46 l 14 -46 "},"{":{"ha":833,"x_min":0,"x_max":0,"o":"m 222 556 b 333 667 285 556 333 604 l 333 861 b 583 1111 333 1000 444 1111 l 611 1111 l 611 972 l 583 972 b 472 861 521 972 472 924 l 472 667 b 396 486 472 596 443 532 b 472 306 443 440 472 376 l 472 111 b 583 0 472 49 521 0 l 611 0 l 611 -139 l 583 -139 b 333 111 444 -139 333 -28 l 333 306 b 222 417 333 368 285 417 l 222 556 "},"}":{"ha":889,"x_min":0,"x_max":0,"o":"m 639 417 b 528 306 576 417 528 368 l 528 111 b 278 -139 528 -28 417 -139 l 250 -139 l 250 0 l 278 0 b 389 111 340 0 389 49 l 389 306 b 465 486 389 376 418 440 b 389 667 418 532 389 596 l 389 861 b 278 972 389 924 340 972 l 250 972 l 250 1111 l 278 1111 b 528 861 417 1111 528 1000 l 528 667 b 639 556 528 604 576 556 l 639 417 "},"[":{"ha":833,"x_min":0,"x_max":0,"o":"m 611 1111 l 611 972 l 361 972 l 361 0 l 611 0 l 611 -139 l 222 -139 l 222 1111 "},"]":{"ha":833,"x_min":0,"x_max":0,"o":"m 611 -139 l 222 -139 l 222 0 l 472 0 l 472 972 l 222 972 l 222 1111 l 611 1111 "},"(":{"ha":833,"x_min":0,"x_max":0,"o":"m 472 -140 b 222 111 335 -140 222 -26 l 222 861 b 472 1111 222 1000 335 1111 l 611 1111 l 611 972 l 472 972 b 361 861 410 972 361 922 l 361 111 b 472 0 361 50 411 0 l 611 0 l 611 -140 l 472 -140 "},")":{"ha":833,"x_min":0,"x_max":0,"o":"m 222 -140 l 222 0 l 361 0 b 472 111 422 0 472 50 l 472 861 b 361 972 472 922 424 972 l 222 972 l 222 1111 l 361 1111 b 611 861 499 1111 611 1000 l 611 111 b 361 -140 611 -26 499 -140 "},"—":{"ha":833,"x_min":0,"x_max":0,"o":"m 14 301 l 819 301 l 819 440 l 14 440 "},"–":{"ha":833,"x_min":0,"x_max":0,"o":"m 750 440 l 750 301 l 83 301 l 83 440 "},"-":{"ha":833,"x_min":0,"x_max":0,"o":"m 667 440 l 667 301 l 167 301 l 167 440 "},"«":{"ha":833,"x_min":0,"x_max":0,"o":"m 671 103 l 457 285 l 457 424 l 671 606 l 750 606 l 750 467 l 722 467 l 592 356 l 592 353 l 722 242 l 750 242 l 750 103 m 83 424 l 361 660 l 486 660 l 486 521 l 413 521 l 218 356 l 218 353 l 413 188 l 486 188 l 486 49 l 361 49 l 83 285 "},"»":{"ha":833,"x_min":0,"x_max":0,"o":"m 83 242 l 111 242 l 242 353 l 242 356 l 111 467 l 83 467 l 83 606 l 163 606 l 376 424 l 376 285 l 163 103 l 83 103 m 347 188 l 421 188 l 615 353 l 615 356 l 421 521 l 347 521 l 347 660 l 472 660 l 750 424 l 750 285 l 472 49 l 347 49 "},"‹":{"ha":833,"x_min":0,"x_max":0,"o":"m 618 49 l 493 49 l 215 285 l 215 424 l 493 660 l 618 660 l 618 521 l 544 521 l 350 356 l 350 353 l 544 188 l 618 188 "},"›":{"ha":833,"x_min":0,"x_max":0,"o":"m 289 188 l 483 353 l 483 356 l 289 521 l 215 521 l 215 660 l 340 660 l 618 424 l 618 285 l 340 49 l 215 49 l 215 188 "},"„":{"ha":833,"x_min":0,"x_max":0,"o":"m 283 -153 l 383 139 l 522 139 l 489 38 l 344 -153 "},"“":{"ha":833,"x_min":0,"x_max":0,"o":"m 439 988 l 339 696 l 200 696 l 233 797 l 378 988 m 468 797 l 613 988 l 674 988 l 574 696 l 435 696 "},"”":{"ha":833,"x_min":0,"x_max":0,"o":"m 393 694 l 493 986 l 632 986 l 599 885 l 454 694 m 258 986 l 397 986 l 364 885 l 219 694 l 158 694 "},"‘":{"ha":833,"x_min":0,"x_max":0,"o":"m 550 988 l 450 696 l 311 696 l 344 797 l 489 988 "},"’":{"ha":833,"x_min":0,"x_max":0,"o":"m 283 694 l 383 986 l 522 986 l 489 885 l 344 694 "},"‚":{"ha":833,"x_min":0,"x_max":0,"o":"m 283 -153 l 383 139 l 522 139 l 489 38 l 344 -153 "},"¢":{"ha":833,"x_min":0,"x_max":0,"o":"m 486 847 l 486 708 b 722 458 618 701 722 593 l 722 444 l 583 444 l 583 458 b 486 568 583 517 542 563 l 486 142 b 583 251 540 149 583 194 l 583 265 l 722 265 l 722 251 b 486 0 722 118 618 8 l 486 -139 l 347 -139 l 347 0 b 111 251 217 8 111 118 l 111 458 b 347 708 111 593 217 701 l 347 847 m 250 251 b 347 142 250 194 293 149 l 347 568 b 250 458 292 563 250 515 l 250 251 "},"¤":{"ha":833,"x_min":0,"x_max":0,"o":"m 358 354 b 475 354 390 322 443 322 b 475 471 507 386 507 439 b 358 471 443 503 390 503 b 358 354 326 439 326 386 m 219 314 b 219 511 188 375 188 450 l 143 589 l 240 686 l 318 610 b 515 610 379 642 454 642 l 593 686 l 690 589 l 614 511 b 614 314 646 450 646 375 l 690 236 l 593 139 l 515 215 b 318 215 454 183 379 183 l 240 139 l 143 236 "},"$":{"ha":833,"x_min":0,"x_max":0,"o":"m 486 1111 l 486 969 b 708 714 611 951 708 844 l 708 672 l 569 672 l 569 714 b 486 828 569 768 535 813 l 486 551 b 722 244 603 482 722 394 b 486 1 722 113 622 11 l 486 -139 l 347 -139 l 347 1 b 111 258 215 13 111 122 l 111 314 l 250 314 l 250 258 b 347 142 250 200 292 151 l 347 469 b 125 742 235 536 125 613 b 347 971 125 867 215 957 l 347 1111 m 264 742 b 347 635 264 701 297 668 l 347 831 b 264 742 294 821 264 789 m 486 140 b 583 244 544 150 583 190 b 486 385 583 301 543 344 l 486 140 "},"€":{"ha":833,"x_min":0,"x_max":0,"o":"m 583 722 b 472 833 583 785 535 833 l 444 833 b 333 722 382 833 333 783 l 333 606 l 521 606 l 521 467 l 333 467 l 333 411 l 521 411 l 521 272 l 333 272 l 333 251 b 444 140 333 190 383 140 l 472 140 b 583 251 533 140 583 190 l 583 265 l 722 265 l 722 251 b 472 0 722 114 611 0 l 444 0 b 194 251 307 0 194 114 l 194 272 l 111 272 l 111 411 l 194 411 l 194 467 l 111 467 l 111 606 l 194 606 l 194 722 b 444 972 194 861 307 972 l 472 972 b 722 722 611 972 722 861 l 722 708 l 583 708 l 583 722 "},"£":{"ha":833,"x_min":0,"x_max":0,"o":"m 194 139 b 306 250 257 139 306 188 l 306 335 l 153 335 l 153 474 l 306 474 l 306 722 b 556 972 306 861 417 972 l 722 972 l 722 833 l 556 833 b 444 722 493 833 444 785 l 444 474 l 646 474 l 646 335 l 444 335 l 444 250 b 419 139 444 210 435 172 l 722 139 l 722 0 l 111 0 l 111 139 l 194 139 "},"¥":{"ha":833,"x_min":0,"x_max":0,"o":"m 272 439 l 111 639 l 111 972 l 250 972 l 250 689 l 414 485 l 417 485 l 583 703 l 583 972 l 722 972 l 722 656 l 557 439 l 664 439 l 664 300 l 486 300 l 486 231 l 664 231 l 664 92 l 486 92 l 486 0 l 347 0 l 347 92 l 171 92 l 171 231 l 347 231 l 347 300 l 171 300 l 171 439 "},"≈":{"ha":833,"x_min":0,"x_max":0,"o":"m 108 194 b 325 335 143 294 211 339 l 476 271 b 533 317 511 272 521 283 l 664 272 b 447 132 629 172 561 128 l 296 196 b 239 150 261 194 251 183 l 108 194 m 108 485 b 325 625 143 585 211 629 l 476 561 b 533 607 511 563 521 574 l 664 563 b 447 422 629 463 561 418 l 296 486 b 239 440 261 485 251 474 l 108 485 "},"~":{"ha":833,"x_min":0,"x_max":0,"o":"m 108 360 b 325 500 143 460 211 504 l 476 436 b 533 482 511 438 521 449 l 664 438 b 447 297 629 338 561 293 l 296 361 b 239 315 261 360 251 349 l 108 360 "},"÷":{"ha":833,"x_min":0,"x_max":0,"o":"m 667 440 l 667 301 l 167 301 l 167 440 m 340 218 l 493 218 l 493 79 l 340 79 m 340 663 l 493 663 l 493 524 l 340 524 "},"∅":{"ha":833,"x_min":0,"x_max":0,"o":"m 417 56 b 381 58 404 56 392 57 l 358 0 l 210 0 l 250 107 b 118 356 171 161 118 253 b 417 653 118 519 253 653 b 453 650 429 653 442 651 l 475 708 l 624 708 l 583 601 b 715 356 663 549 715 458 b 417 56 715 190 582 56 m 257 356 b 301 244 257 313 274 274 l 401 514 b 257 356 321 506 257 436 m 432 194 b 576 356 513 203 576 272 b 532 464 576 397 560 436 l 432 194 "},"=":{"ha":833,"x_min":0,"x_max":0,"o":"m 667 588 l 667 449 l 167 449 l 167 588 m 167 322 l 667 322 l 667 183 l 167 183 "},">":{"ha":833,"x_min":0,"x_max":0,"o":"m 289 188 l 483 353 l 483 356 l 289 521 l 215 521 l 215 660 l 340 660 l 618 424 l 618 285 l 340 49 l 215 49 l 215 188 "},"≥":{"ha":833,"x_min":0,"x_max":0,"o":"m 260 431 l 490 540 l 490 543 l 260 653 l 167 653 l 167 792 l 292 792 l 667 611 l 667 472 l 292 292 l 167 292 l 167 431 m 167 222 l 667 222 l 667 83 l 167 83 "},"∞":{"ha":833,"x_min":0,"x_max":0,"o":"m 583 313 b 653 407 624 325 653 363 b 583 501 653 451 624 489 l 506 407 l 583 313 m 42 407 b 314 642 42 550 167 663 l 417 517 l 519 642 b 792 407 667 663 792 550 b 519 172 792 264 667 151 l 417 297 l 314 172 b 42 407 167 151 42 264 m 181 407 b 250 313 181 363 210 325 l 328 407 l 250 501 b 181 407 210 489 181 451 "},"∫":{"ha":833,"x_min":0,"x_max":0,"o":""},"<":{"ha":833,"x_min":0,"x_max":0,"o":"m 618 49 l 493 49 l 215 285 l 215 424 l 493 660 l 618 660 l 618 521 l 544 521 l 350 356 l 350 353 l 544 188 l 618 188 "},"≤":{"ha":833,"x_min":0,"x_max":0,"o":"m 667 292 l 542 292 l 167 472 l 167 611 l 542 792 l 667 792 l 667 653 l 574 653 l 343 543 l 343 540 l 574 431 l 667 431 m 167 222 l 667 222 l 667 83 l 167 83 "},"¬":{"ha":833,"x_min":0,"x_max":0,"o":"m 667 440 l 667 172 l 528 172 l 528 301 l 167 301 l 167 440 "},"−":{"ha":833,"x_min":0,"x_max":0,"o":"m 667 440 l 667 301 l 167 301 l 167 440 "},"×":{"ha":833,"x_min":0,"x_max":0,"o":"m 417 471 l 544 599 l 643 501 l 515 374 l 643 246 l 544 147 l 417 275 l 289 147 l 190 246 l 318 374 l 190 501 l 289 599 "},"≠":{"ha":833,"x_min":0,"x_max":0,"o":"m 613 708 l 567 588 l 667 588 l 667 449 l 515 449 l 468 322 l 667 322 l 667 183 l 415 183 l 368 57 l 219 57 l 267 183 l 167 183 l 167 322 l 319 322 l 367 449 l 167 449 l 167 588 l 418 588 l 464 708 "},"∂":{"ha":833,"x_min":0,"x_max":0,"o":""},"%":{"ha":833,"x_min":0,"x_max":0,"o":"m 111 0 l 111 222 l 583 800 l 583 972 l 722 972 l 722 750 l 250 172 l 250 0 m 28 788 b 213 972 28 890 110 972 b 396 788 314 972 396 890 b 213 603 396 685 314 603 b 28 788 110 603 28 685 m 167 788 b 213 742 167 763 188 742 b 257 788 238 742 257 763 b 213 833 257 813 238 833 b 167 788 188 833 167 813 m 438 185 b 622 369 438 288 519 369 b 806 185 724 369 806 288 b 622 0 806 82 724 0 b 438 185 519 0 438 82 m 576 185 b 622 139 576 160 597 139 b 667 185 647 139 667 160 b 622 231 667 210 647 231 b 576 185 597 231 576 210 "},"‰":{"ha":1667,"x_min":0,"x_max":0,"o":"m 1046 0 b 861 185 943 0 861 82 b 1046 369 861 288 943 369 b 1229 185 1147 369 1229 288 b 1046 0 1229 82 1147 0 m 28 788 b 213 972 28 890 110 972 b 396 788 314 972 396 890 b 213 603 396 685 314 603 b 28 788 110 603 28 685 m 111 222 l 583 800 l 583 972 l 722 972 l 722 750 l 250 172 l 250 0 l 111 0 m 167 788 b 213 742 167 763 188 742 b 257 788 238 742 257 763 b 213 833 257 813 238 833 b 167 788 188 833 167 813 m 438 185 b 622 369 438 288 519 369 b 806 185 724 369 806 288 b 622 0 806 82 724 0 b 438 185 519 0 438 82 m 576 185 b 622 139 576 160 597 139 b 667 185 647 139 667 160 b 622 231 667 210 647 231 b 576 185 597 231 576 210 m 1000 185 b 1046 139 1000 160 1021 139 b 1090 185 1071 139 1090 160 b 1046 231 1090 210 1071 231 b 1000 185 1021 231 1000 210 "},"+":{"ha":833,"x_min":0,"x_max":0,"o":"m 347 440 l 347 621 l 486 621 l 486 440 l 667 440 l 667 301 l 486 301 l 486 121 l 347 121 l 347 301 l 167 301 l 167 440 "},"±":{"ha":833,"x_min":0,"x_max":0,"o":"m 347 639 l 347 819 l 486 819 l 486 639 l 667 639 l 667 500 l 486 500 l 486 319 l 347 319 l 347 500 l 167 500 l 167 639 m 167 250 l 667 250 l 667 111 l 167 111 "},"∏":{"ha":833,"x_min":0,"x_max":0,"o":""},"√":{"ha":833,"x_min":0,"x_max":0,"o":""},"∑":{"ha":833,"x_min":0,"x_max":0,"o":""},"↑":{"ha":833,"x_min":0,"x_max":0,"o":"m 486 0 l 486 507 l 583 393 l 583 319 l 722 319 l 722 444 l 486 722 l 347 722 l 111 444 l 111 319 l 250 319 l 250 393 l 415 588 l 418 588 l 486 507 l 486 647 l 347 647 l 347 0 "},"↗":{"ha":833,"x_min":0,"x_max":0,"o":"m 210 57 l 569 415 l 557 265 l 506 214 l 603 115 l 692 204 l 721 567 l 622 665 l 260 636 l 171 547 l 269 449 l 321 501 l 575 522 l 578 519 l 569 415 l 668 514 l 569 613 l 113 154 "},"→":{"ha":833,"x_min":0,"x_max":0,"o":"m 56 299 l 563 299 l 449 201 l 375 201 l 375 63 l 500 63 l 778 299 l 778 438 l 500 674 l 375 674 l 375 535 l 449 535 l 643 369 l 643 367 l 563 299 l 703 299 l 703 438 l 56 438 "},"↘":{"ha":833,"x_min":0,"x_max":0,"o":"m 471 211 l 321 224 l 269 276 l 171 178 l 260 89 l 622 60 l 721 158 l 692 521 l 603 610 l 506 511 l 557 460 l 578 206 l 575 203 l 471 211 l 569 113 l 668 211 l 210 668 l 113 571 "},"↓":{"ha":833,"x_min":0,"x_max":0,"o":"m 347 215 l 250 329 l 250 403 l 111 403 l 111 278 l 347 0 l 486 0 l 722 278 l 722 403 l 583 403 l 583 329 l 418 135 l 415 135 l 347 215 l 347 75 l 486 75 l 486 722 l 347 722 "},"↙":{"ha":833,"x_min":0,"x_max":0,"o":"m 622 668 l 263 310 l 275 460 l 326 511 l 229 610 l 140 521 l 111 158 l 210 60 l 572 89 l 661 178 l 563 276 l 511 224 l 257 203 l 254 206 l 263 310 l 164 211 l 263 113 l 719 571 "},"←":{"ha":833,"x_min":0,"x_max":0,"o":"m 271 438 l 385 535 l 458 535 l 458 674 l 333 674 l 56 438 l 56 299 l 333 63 l 458 63 l 458 201 l 385 201 l 190 367 l 190 369 l 271 438 l 131 438 l 131 299 l 778 299 l 778 438 "},"↖":{"ha":833,"x_min":0,"x_max":0,"o":"m 361 514 l 511 501 l 563 449 l 661 547 l 572 636 l 210 665 l 111 567 l 140 204 l 229 115 l 326 214 l 275 265 l 254 519 l 257 522 l 361 514 l 263 613 l 164 514 l 622 57 l 719 154 "},"↔":{"ha":833,"x_min":0,"x_max":0,"o":"m 57 310 l 229 310 l 149 378 l 149 381 l 229 449 l 57 449 m 292 74 l 343 213 l 229 310 l 604 310 l 490 213 l 542 74 l 819 310 l 819 449 l 542 685 l 490 546 l 685 381 l 685 378 l 604 310 l 776 310 l 776 449 l 229 449 l 343 546 l 292 685 l 14 449 l 14 310 "},"↕":{"ha":833,"x_min":0,"x_max":0,"o":"m 485 43 l 485 215 l 417 135 l 414 135 l 346 215 l 346 43 m 346 0 l 485 0 l 721 278 l 582 329 l 485 215 l 485 590 l 582 476 l 721 528 l 485 806 l 346 806 l 110 528 l 249 476 l 414 671 l 417 671 l 485 590 l 485 763 l 346 763 l 346 215 l 249 329 l 110 278 "},"◊":{"ha":833,"x_min":0,"x_max":0,"o":"m 418 622 l 415 622 l 250 428 l 250 281 l 415 86 l 418 86 l 583 281 l 583 428 m 111 479 l 347 757 l 486 757 l 722 479 l 722 229 l 486 -49 l 347 -49 l 111 229 "},"|":{"ha":833,"x_min":0,"x_max":0,"o":"m 486 -139 l 347 -139 l 347 1111 l 486 1111 "},"¦":{"ha":833,"x_min":0,"x_max":0,"o":"m 486 -139 l 347 -139 l 347 288 l 486 288 m 347 1111 l 486 1111 l 486 685 l 347 685 "},"@":{"ha":833,"x_min":0,"x_max":0,"o":"m 625 722 b 514 833 625 785 576 833 l 319 833 b 208 722 257 833 208 783 l 208 11 b 319 -100 208 -50 258 -100 l 582 -100 l 582 -240 l 319 -240 b 69 11 182 -240 69 -126 l 69 722 b 319 972 69 861 182 972 l 514 972 b 764 722 653 972 764 861 l 764 54 l 625 54 l 625 104 l 551 54 l 508 54 b 258 304 371 54 258 167 l 258 429 b 508 679 258 568 371 679 l 551 679 l 625 629 l 625 722 m 397 304 b 508 193 397 243 447 193 l 625 271 l 625 463 l 508 540 b 397 429 447 540 397 490 l 397 304 "},"&":{"ha":833,"x_min":0,"x_max":0,"o":"m 619 431 l 758 431 l 758 417 b 689 182 758 331 733 250 b 758 0 731 118 758 56 l 619 0 b 593 79 619 22 610 49 b 361 0 528 29 447 0 b 75 331 176 0 75 132 l 256 500 b 168 708 204 574 168 644 b 407 972 168 861 268 972 b 644 676 556 972 658 846 l 442 486 b 597 306 490 428 546 367 b 619 417 611 339 619 378 m 214 271 b 361 139 222 185 274 139 b 511 192 417 139 468 158 b 340 390 460 253 397 321 l 214 271 m 307 708 b 356 594 307 678 326 639 l 506 736 b 407 833 496 797 460 833 b 307 708 347 833 307 786 "},"¶":{"ha":833,"x_min":0,"x_max":0,"o":"m 83 722 b 333 972 83 861 194 972 l 542 972 l 542 0 l 403 0 l 403 389 l 333 389 b 83 639 194 389 83 500 l 83 722 m 611 972 l 750 972 l 750 0 l 611 0 "},"©":{"ha":833,"x_min":0,"x_max":0,"o":"m 479 392 l 576 392 l 576 390 b 417 221 576 294 507 221 b 257 390 325 221 257 294 l 257 463 b 417 632 257 558 325 632 b 576 463 507 632 576 558 l 576 461 l 479 461 l 479 463 b 417 535 479 506 453 535 b 354 463 381 535 354 506 l 354 390 b 417 318 354 347 381 318 b 479 390 453 318 479 347 m 83 542 b 417 851 83 721 219 851 b 749 542 614 851 749 721 l 749 310 b 417 0 749 131 614 0 b 83 310 218 0 83 131 m 181 310 b 417 97 181 188 268 97 b 651 310 564 97 651 188 l 651 542 b 417 754 651 664 564 754 b 181 542 269 754 181 664 l 181 310 "},"®":{"ha":833,"x_min":0,"x_max":0,"o":"m 429 790 b 564 657 504 790 564 732 b 510 550 564 614 543 575 l 560 469 l 446 469 l 413 524 l 388 524 l 388 469 l 290 469 l 290 790 m 53 622 b 417 986 53 824 215 986 b 781 622 618 986 781 824 b 417 258 781 421 618 258 b 53 622 215 258 53 421 m 150 622 b 417 356 150 475 268 356 b 683 622 564 356 683 475 b 417 889 683 769 564 889 b 150 622 268 889 150 769 m 429 621 b 467 657 450 621 467 638 b 429 693 467 678 450 693 l 388 693 l 388 621 "},"§":{"ha":833,"x_min":0,"x_max":0,"o":""},"™":{"ha":1667,"x_min":0,"x_max":0,"o":"m 514 972 l 514 875 l 361 875 l 361 500 l 264 500 l 264 875 l 111 875 l 111 972 m 583 972 l 694 972 l 819 718 l 944 972 l 1056 972 l 1056 500 l 958 500 l 958 801 l 857 597 l 782 597 l 681 801 l 681 500 l 583 500 "},"°":{"ha":833,"x_min":0,"x_max":0,"o":"m 417 617 b 232 801 314 617 232 699 b 417 986 232 904 314 986 b 600 801 518 986 600 904 b 417 617 600 699 518 617 m 371 801 b 417 756 371 776 392 756 b 461 801 442 756 461 776 b 417 847 461 826 442 847 b 371 801 392 847 371 826 "},"^":{"ha":833,"x_min":0,"x_max":0,"o":"m 528 579 l 418 810 l 415 810 l 306 579 l 306 486 l 167 486 l 167 611 l 347 986 l 486 986 l 667 611 l 667 486 l 528 486 "},"†":{"ha":833,"x_min":0,"x_max":0,"o":"m 347 806 l 347 972 l 486 972 l 486 806 l 694 806 l 694 667 l 486 667 l 486 250 l 347 250 l 347 667 l 139 667 l 139 806 "},"‡":{"ha":833,"x_min":0,"x_max":0,"o":"m 347 556 l 347 667 l 139 667 l 139 806 l 347 806 l 347 972 l 486 972 l 486 806 l 694 806 l 694 667 l 486 667 l 486 556 l 694 556 l 694 417 l 486 417 l 486 250 l 347 250 l 347 417 l 139 417 l 139 556 "},"̈":{"ha":0,"x_min":0,"x_max":0,"o":"m 368 972 l 368 833 l 215 833 l 215 972 m 465 972 l 618 972 l 618 833 l 465 833 "},"̇":{"ha":0,"x_min":0,"x_max":0,"o":"m 493 972 l 493 833 l 340 833 l 340 972 "},"̀":{"ha":0,"x_min":0,"x_max":0,"o":"m 504 833 l 343 833 l 121 1044 l 310 1044 "},"́":{"ha":0,"x_min":0,"x_max":0,"o":"m 713 1044 l 490 833 l 329 833 l 524 1044 "},"̋":{"ha":0,"x_min":0,"x_max":0,"o":"m 810 1044 l 588 833 l 426 833 l 621 1044 m 343 1044 l 532 1044 l 310 833 l 149 833 "},"̂":{"ha":0,"x_min":0,"x_max":0,"o":"m 671 833 l 510 833 l 417 929 l 324 833 l 163 833 l 343 1044 l 490 1044 "},"̌":{"ha":0,"x_min":0,"x_max":0,"o":"m 343 833 l 163 1044 l 324 1044 l 417 949 l 510 1044 l 671 1044 l 490 833 "},"̆":{"ha":0,"x_min":0,"x_max":0,"o":"m 490 1049 l 629 1049 l 629 1047 b 417 833 629 929 533 833 b 203 1047 299 833 203 929 l 203 1049 l 342 1049 l 342 1047 b 417 972 342 1006 375 972 b 490 1047 457 972 490 1006 "},"̊":{"ha":0,"x_min":0,"x_max":0,"o":"m 418 833 b 242 1008 319 833 242 911 b 418 1183 242 1106 319 1183 b 593 1008 514 1183 593 1106 b 418 833 593 913 514 833 m 381 1008 b 418 972 381 989 396 972 b 454 1008 438 972 454 989 b 418 1044 454 1029 438 1044 b 381 1008 396 1044 381 1029 "},"̃":{"ha":0,"x_min":0,"x_max":0,"o":"m 139 860 b 356 1000 174 960 242 1004 l 507 936 b 564 982 542 938 551 949 l 694 938 b 478 797 660 838 592 793 l 326 861 b 269 815 292 860 282 849 l 139 860 "},"̄":{"ha":0,"x_min":0,"x_max":0,"o":"m 667 972 l 667 833 l 167 833 l 167 972 "},"̒":{"ha":0,"x_min":0,"x_max":0,"o":"m 558 1125 l 458 833 l 319 833 l 353 935 l 497 1125 "},"̦":{"ha":0,"x_min":0,"x_max":0,"o":"m 246 -431 l 346 -139 l 485 -139 l 451 -240 l 307 -431 "},"̧":{"ha":0,"x_min":0,"x_max":0,"o":"m 350 46 l 489 46 l 489 0 l 483 -33 l 496 -33 b 671 -212 592 -33 671 -114 b 496 -389 671 -308 592 -389 l 338 -389 l 338 -250 l 496 -250 b 532 -212 514 -250 532 -232 b 496 -172 532 -190 515 -172 l 390 -172 l 331 -60 l 350 0 "},"̨":{"ha":0,"x_min":0,"x_max":0,"o":"m 564 -292 l 475 -292 b 408 25 297 -292 254 -82 l 547 25 b 564 -153 393 -132 501 -153 "},"̵":{"ha":0,"x_min":0,"x_max":0,"o":"m 667 440 l 667 301 l 167 301 l 167 440 "},"̶":{"ha":0,"x_min":0,"x_max":0,"o":"m 14 301 l 819 301 l 819 440 l 14 440 "},"̷":{"ha":0,"x_min":0,"x_max":0,"o":"m 674 840 l 310 -132 l 161 -132 l 525 840 "},"̸":{"ha":0,"x_min":0,"x_max":0,"o":"m 728 1118 l 254 -146 l 106 -146 l 579 1118 "},"´":{"ha":833,"x_min":0,"x_max":0,"o":"m 713 1044 l 490 833 l 329 833 l 524 1044 "},"˘":{"ha":833,"x_min":0,"x_max":0,"o":"m 490 1049 l 629 1049 l 629 1047 b 417 833 629 929 533 833 b 203 1047 299 833 203 929 l 203 1049 l 342 1049 l 342 1047 b 417 972 342 1006 375 972 b 490 1047 457 972 490 1006 "},"ˇ":{"ha":833,"x_min":0,"x_max":0,"o":"m 343 833 l 163 1044 l 324 1044 l 417 949 l 510 1044 l 671 1044 l 490 833 "},"¸":{"ha":833,"x_min":0,"x_max":0,"o":"m 350 46 l 489 46 l 489 0 l 483 -33 l 496 -33 b 671 -212 592 -33 671 -114 b 496 -389 671 -308 592 -389 l 338 -389 l 338 -250 l 496 -250 b 532 -212 514 -250 532 -232 b 496 -172 532 -190 515 -172 l 390 -172 l 331 -60 l 350 0 "},"ˆ":{"ha":833,"x_min":0,"x_max":0,"o":"m 671 833 l 510 833 l 417 929 l 324 833 l 163 833 l 343 1044 l 490 1044 "},"¨":{"ha":833,"x_min":0,"x_max":0,"o":"m 368 972 l 368 833 l 215 833 l 215 972 m 465 972 l 618 972 l 618 833 l 465 833 "},"˙":{"ha":833,"x_min":0,"x_max":0,"o":"m 493 972 l 493 833 l 340 833 l 340 972 "},"`":{"ha":833,"x_min":0,"x_max":0,"o":"m 504 833 l 343 833 l 121 1044 l 310 1044 "},"˝":{"ha":833,"x_min":0,"x_max":0,"o":"m 851 1044 l 629 833 l 468 833 l 663 1044 m 385 1044 l 574 1044 l 351 833 l 190 833 "},"¯":{"ha":833,"x_min":0,"x_max":0,"o":"m 667 972 l 667 833 l 167 833 l 167 972 "},"˛":{"ha":833,"x_min":0,"x_max":0,"o":"m 564 -292 l 475 -292 b 408 25 297 -292 254 -82 l 547 25 b 564 -153 393 -132 501 -153 "},"˚":{"ha":833,"x_min":0,"x_max":0,"o":"m 418 833 b 242 1008 319 833 242 911 b 418 1183 242 1106 319 1183 b 593 1008 514 1183 593 1106 b 418 833 593 913 514 833 m 381 1008 b 418 972 381 989 396 972 b 454 1008 438 972 454 989 b 418 1044 454 1029 438 1044 b 381 1008 396 1044 381 1029 "},"˜":{"ha":833,"x_min":0,"x_max":0,"o":"m 139 860 b 356 1000 174 960 242 1004 l 507 936 b 564 982 542 938 551 949 l 694 938 b 478 797 660 838 592 793 l 326 861 b 269 815 292 860 282 849 l 139 860 "}}}
